<svg width="849" height="452" viewBox="0 0 849 452" fill="none" xmlns="http://www.w3.org/2000/svg">
<path d="M656.171 432.19C650.092 440.099 642.919 445.963 644.499 448.64C644.499 448.64 647.733 451.073 656.657 451.073C671.977 451.073 687.052 449.905 684.572 448.348C681.144 446.182 671.223 445.403 661.739 442.118C659.308 441.315 666.87 436.765 664.828 436.035C661.816 435.058 658.915 433.769 656.171 432.19Z" fill="#0E1528"/>
<path d="M814.08 448.177C814.08 448.177 816.098 451 823.807 451C837.059 451 850.871 449.199 848.731 447.837C845.764 445.987 822.542 441.145 822.542 441.145L817.339 434.672L808.512 439.539L814.08 448.177Z" fill="#0E1528"/>
<path d="M772.211 252.704C766.377 252.727 760.563 252.032 754.898 250.636C752.587 249.927 750.642 248.348 749.473 246.231C748.305 244.113 748.005 241.624 748.636 239.29C749.267 236.955 750.781 234.958 752.857 233.719C754.933 232.481 757.409 232.098 759.762 232.653C760.078 232.653 781.014 238.104 793.221 227.616C801.391 220.608 804.503 207.37 802.461 188.317L801.804 182.234L820.625 171.551C821.691 170.886 822.881 170.443 824.122 170.249C825.364 170.056 826.632 170.116 827.849 170.426C829.067 170.736 830.21 171.289 831.208 172.052C832.207 172.815 833.041 173.773 833.66 174.867C834.278 175.961 834.67 177.17 834.81 178.419C834.95 179.669 834.836 180.934 834.475 182.138C834.113 183.342 833.512 184.461 832.707 185.427C831.903 186.393 830.911 187.185 829.792 187.757L821.476 192.478C822.789 214.938 817.342 231.534 805.233 241.851C794.971 250.563 782.23 252.704 772.211 252.704Z" fill="#F6DAB0"/>
<path d="M804.308 201.02C803.967 214.574 800.368 224.381 793.535 230.221C780.137 241.731 757.183 235.866 756.794 235.769C755.499 235.417 754.147 235.324 752.817 235.496C751.486 235.667 750.202 236.098 749.038 236.766C746.687 238.115 744.968 240.342 744.259 242.959C743.549 245.576 743.908 248.368 745.255 250.721C746.603 253.073 748.829 254.794 751.444 255.503C757.431 258.107 763.909 259.385 770.435 259.251C810.022 257.839 833.925 223.675 834.362 203.746L804.308 201.02Z" fill="#96A0B5"/>
<path d="M749.863 153.643C746.313 152.037 742.835 150.309 739.407 148.508C706.58 167.197 664.659 191.165 663.832 191.993C663.832 191.993 684.671 225.184 686.008 226.522C686.859 227.374 738.531 190.289 775.687 163.425C767.103 160.091 758.276 157.39 749.863 153.643Z" fill="#E7680C"/>
<path d="M750.324 152.668C758.932 156.464 767.953 159.214 776.683 162.645C797.133 147.85 812.963 136.34 812.963 136.34L777.996 126.607L740.598 147.875C743.759 149.578 747.041 151.184 750.324 152.668Z" fill="#E7680C"/>
<path d="M690.117 109.112L710.713 164.885L750.956 179.655L699.99 86.457L690.117 109.112Z" fill="#E7680C"/>
<path d="M753.168 193.381H723.332L749.885 239.785L790.347 256.843L753.168 193.381Z" fill="#006091"/>
<path d="M790.324 256.842L766.591 216.302L665.022 275.895L645.059 241.828L657.606 39.1283L703.247 12.3613L785.387 152.596L813.035 136.39L836.014 175.64L808.391 191.847L832.123 232.386L790.324 256.842ZM698.189 99.5488L695.612 101.058L688.633 209.318L743.612 177.076L698.189 99.5488Z" fill="#FC832B"/>
<path d="M611.309 232.531L645.059 241.803L665.047 275.894L629.351 266.866L611.309 232.531Z" fill="#E7680C"/>
<path d="M611.309 232.531L645.06 241.803L657.607 39.1034L626.628 31.6816L611.309 232.531Z" fill="#E7680C"/>
<path d="M626.629 31.6822L657.608 39.104L703.249 12.3126L671.881 3.1875L626.629 31.6822Z" fill="#E7680C"/>
<path d="M694.543 313.297C694.543 313.297 699.406 366.831 699.406 385.641C699.406 385.641 660.5 416.034 650.773 431.875C654.859 434.989 662.932 439.175 668.281 438.98C685.122 423.14 703.379 408.877 722.822 396.372C722.822 396.372 735.151 360.65 738.968 330.379L694.543 313.297Z" fill="#0E1528"/>
<path d="M722.338 315.826C731.099 316.127 739.795 314.219 747.627 310.277C745.195 299.571 750.496 268.01 757.353 251.147C757.353 251.147 762.703 239.418 758.958 235.792C745.098 222.457 733.305 223.625 729.633 223.406C716.891 234.162 693.158 265.869 694.155 307.82C700.599 314.633 713.852 315.777 722.338 315.826Z" fill="#E9F0F7"/>
<path d="M808.294 441.024C813.405 439.899 818.003 437.119 821.376 433.116C806.324 408.782 751.127 318.967 748.136 311.934C748.136 311.764 747.99 311.545 747.917 311.35C739.508 315.556 730.139 317.469 720.756 316.898C712.61 316.582 700.768 315.438 694.008 309.379C694.008 309.817 694.008 310.255 694.008 310.693C695.151 334.102 772.792 412.189 803.431 442.095C805.073 441.843 806.698 441.485 808.294 441.024Z" fill="#1F2843"/>
<path d="M648.051 291.541C645.937 291.552 643.835 291.223 641.826 290.567C638.827 289.53 636.139 287.749 634.013 285.392C631.888 283.035 630.393 280.178 629.668 277.086C629.279 275.902 629.132 274.652 629.235 273.41C629.338 272.168 629.688 270.96 630.266 269.856C630.844 268.752 631.637 267.775 632.599 266.983C633.56 266.191 634.671 265.6 635.865 265.245C637.059 264.891 638.311 264.779 639.549 264.917C640.787 265.055 641.984 265.441 643.07 266.05C644.157 266.659 645.11 267.481 645.873 268.465C646.637 269.45 647.195 270.577 647.516 271.782C647.621 272.185 647.768 272.577 647.954 272.95C648.95 272.95 652.622 272.658 661.595 267.377C669.619 262.681 679.103 255.648 688.343 248.859C703.832 237.398 718.471 226.57 730.556 222.725C732.886 222.061 735.384 222.332 737.518 223.48C739.652 224.629 741.254 226.565 741.985 228.877C742.717 231.189 742.518 233.695 741.433 235.863C740.348 238.031 738.461 239.69 736.173 240.489C727.03 243.384 712.999 253.775 699.407 263.825C679.516 278.571 661.984 291.541 648.051 291.541Z" fill="#00A4E2"/>
<path d="M665.462 284.583C664.32 279.108 663.031 273.049 659.651 268.547C652.137 272.708 648.952 272.976 648.028 272.952C647.842 272.579 647.695 272.187 647.59 271.784C647.27 270.579 646.711 269.452 645.948 268.467C645.184 267.483 644.231 266.661 643.144 266.052C642.058 265.443 640.861 265.057 639.623 264.919C638.385 264.781 637.133 264.893 635.939 265.247C634.745 265.602 633.635 266.193 632.673 266.985C631.711 267.777 630.918 268.754 630.34 269.858C629.763 270.962 629.412 272.17 629.309 273.412C629.206 274.654 629.354 275.904 629.742 277.088C630.467 280.18 631.962 283.037 634.088 285.394C636.214 287.751 638.901 289.532 641.9 290.569C643.909 291.225 646.011 291.554 648.125 291.543C654.365 291.204 660.441 289.422 665.876 286.335C665.681 285.751 665.584 285.167 665.462 284.583Z" fill="#F6DAB0"/>
<path d="M742.229 228.808C741.486 226.454 739.839 224.491 737.651 223.35C735.462 222.21 732.911 221.985 730.557 222.725C718.399 226.57 703.809 237.325 688.344 248.859C679.177 255.648 669.694 262.681 661.596 267.377L660.551 267.986C664.028 272.585 670.034 295.288 670.156 295.799C680.028 290.64 727.347 254.578 737.609 243.701C741.208 239.953 743.785 233.7 742.229 228.808Z" fill="#96A0B5"/>
<path d="M634.873 284.022C634.306 284.018 633.755 283.839 633.292 283.511C625.998 278.28 622.18 268.23 622.034 267.816C621.779 267.139 621.804 266.388 622.103 265.728C622.401 265.069 622.95 264.555 623.627 264.3C624.304 264.045 625.055 264.07 625.713 264.369C626.372 264.668 626.886 265.216 627.14 265.894C627.14 265.894 630.545 274.824 636.478 279.058C637.065 279.483 637.462 280.123 637.58 280.838C637.698 281.554 637.53 282.287 637.11 282.879C636.858 283.237 636.522 283.528 636.133 283.727C635.743 283.926 635.311 284.028 634.873 284.022Z" fill="#F6DAB0"/>
<path d="M634.897 277.354C634.457 277.356 634.023 277.251 633.633 277.048C633.243 276.844 632.909 276.548 632.66 276.186C629.158 271.319 626.362 259.469 626.046 258.155C625.884 257.445 626.008 256.701 626.39 256.082C626.772 255.463 627.382 255.019 628.088 254.845C628.44 254.763 628.804 254.751 629.16 254.81C629.516 254.87 629.856 255 630.162 255.192C630.467 255.385 630.732 255.636 630.939 255.932C631.147 256.227 631.293 256.561 631.371 256.914C632.149 260.223 634.678 269.567 637.109 273.023C637.319 273.316 637.468 273.648 637.549 273.999C637.629 274.351 637.639 274.715 637.578 275.07C637.517 275.425 637.386 275.765 637.193 276.069C637 276.374 636.748 276.637 636.453 276.843C636.001 277.174 635.456 277.352 634.897 277.354Z" fill="#F6DAB0"/>
<path d="M638.664 275.7C638.136 275.688 637.623 275.52 637.191 275.217C636.758 274.914 636.424 274.489 636.232 273.997C633.801 267.841 632.731 254.944 632.682 254.53C632.634 253.821 632.859 253.12 633.311 252.572C633.764 252.025 634.409 251.671 635.114 251.586C635.825 251.524 636.532 251.745 637.082 252.2C637.633 252.655 637.982 253.308 638.056 254.019C638.434 260.095 639.486 266.11 641.193 271.953C641.466 272.627 641.46 273.383 641.178 274.053C640.895 274.724 640.359 275.255 639.685 275.53C639.361 275.66 639.013 275.718 638.664 275.7Z" fill="#F6DAB0"/>
<path d="M642.773 274.484C642.167 274.487 641.577 274.287 641.097 273.917C640.617 273.547 640.274 273.027 640.123 272.44C639.126 267.886 639.126 263.171 640.123 258.618C640.295 257.913 640.74 257.304 641.36 256.926C641.98 256.547 642.724 256.43 643.43 256.598C643.779 256.678 644.11 256.827 644.401 257.037C644.693 257.246 644.94 257.511 645.128 257.817C645.316 258.123 645.441 258.463 645.496 258.818C645.551 259.173 645.534 259.535 645.448 259.883C644.663 263.565 644.663 267.371 645.448 271.053C645.539 271.401 645.56 271.764 645.511 272.121C645.461 272.477 645.341 272.821 645.158 273.131C644.975 273.44 644.732 273.711 644.444 273.927C644.155 274.142 643.827 274.298 643.478 274.386C643.249 274.453 643.012 274.486 642.773 274.484Z" fill="#F6DAB0"/>
<path d="M752.758 243.702C751.463 243.692 750.185 243.402 749.013 242.85C747.974 242.359 747.042 241.668 746.27 240.817C745.498 239.965 744.902 238.969 744.516 237.886C744.13 236.803 743.961 235.655 744.019 234.506C744.077 233.358 744.361 232.232 744.855 231.194C746.655 227.72 748.832 224.456 751.348 221.461C752.847 219.683 754.991 218.574 757.307 218.377C759.624 218.181 761.924 218.914 763.7 220.414C765.477 221.915 766.585 224.06 766.781 226.378C766.978 228.697 766.245 230.998 764.746 232.776C763.188 234.616 761.827 236.614 760.685 238.738C759.963 240.227 758.837 241.482 757.435 242.36C756.033 243.238 754.412 243.703 752.758 243.702Z" fill="#F7DAB0"/>
<path d="M754.069 239.199C755.093 240.346 756.181 241.434 757.327 242.46C758.806 241.562 759.989 240.251 760.731 238.688C761.873 236.564 763.234 234.566 764.792 232.726C766.292 230.948 767.024 228.647 766.828 226.329C766.632 224.01 765.523 221.865 763.747 220.365C761.97 218.864 759.67 218.131 757.354 218.328C755.037 218.524 752.893 219.633 751.394 221.411C751.224 221.63 750.519 222.482 749.57 223.723C749.668 229.222 750.324 234.965 754.069 239.199Z" fill="#F6DAB0"/>
<path d="M754.069 239.199C755.093 240.346 756.181 241.434 757.327 242.46C758.806 241.562 759.989 240.251 760.731 238.688C761.873 236.564 763.234 234.566 764.792 232.726C766.292 230.948 767.024 228.647 766.828 226.329C766.632 224.01 765.523 221.865 763.747 220.365C761.97 218.864 759.67 218.131 757.354 218.328C755.037 218.524 752.893 219.633 751.394 221.411C751.224 221.63 750.519 222.482 749.57 223.723C749.668 229.222 750.324 234.965 754.069 239.199Z" fill="black" fill-opacity="0.1"/>
<path d="M782.835 229.466C781.156 233.524 777.938 236.75 773.886 238.438C769.834 240.126 765.278 240.137 761.218 238.47C759.206 237.643 757.377 236.427 755.835 234.891C754.294 233.356 753.07 231.531 752.234 229.522C751.398 227.512 750.967 225.357 750.965 223.181C750.963 221.004 751.389 218.848 752.221 216.837L756.598 206.203C757.424 204.19 758.639 202.36 760.174 200.817C761.708 199.274 763.532 198.049 765.54 197.213C767.548 196.377 769.701 195.945 771.876 195.943C774.051 195.941 776.205 196.368 778.215 197.2C782.274 198.875 785.502 202.095 787.19 206.152C788.877 210.209 788.885 214.77 787.212 218.833L782.835 229.466Z" fill="#F7DAB0"/>
<path d="M754.069 215.646C752.707 221.34 744.537 219.514 741.473 216.545C737.242 212.433 734.713 200.851 744.099 201.484C737.339 191.288 760.245 180.215 762.628 192.017C764.428 188.975 766.251 186.225 770.239 185.982C773.108 185.787 778.118 188.027 777.704 191.531C779.821 189.947 782.406 189.115 785.049 189.168C787.692 189.221 790.242 190.155 792.294 191.823C793.656 192.918 796.087 195.351 794.871 197.103C794.191 198.076 790.738 198.393 789.595 198.734C791.589 197.834 799.735 199.658 798.13 203.04C797.4 204.622 793.388 203.21 792.221 202.87V203.236C796.598 205.669 798.373 208.102 797.862 213.48C797.619 215.914 796.452 220.779 793.485 221.047C791.954 221.217 790.203 220.244 790.227 218.614C793.874 222.239 788.719 231.974 784.124 227.18C783.373 226.181 783.035 224.932 783.18 223.691C783.325 222.449 783.942 221.31 784.902 220.512C782.178 218.954 776.27 210.779 780.476 208.467C778.507 208.467 769.412 205.426 772.306 202.822C773.084 205.839 769.315 209.781 766.349 208.224C768.197 212.263 762.725 215.28 759.37 215.523C761.437 218.103 755.115 221.17 753.169 217.422L754.069 215.646Z" fill="#0E1528"/>
<path d="M442.944 182.574C442.944 182.574 437.643 162.207 464.002 157.365L461.984 181.844L442.944 182.574Z" fill="#96A0B5"/>
<path d="M337.314 233.969C331.754 234.02 326.253 232.822 321.216 230.465C297.265 219.15 294.614 185.107 294.468 183.671C294.311 181.217 295.129 178.8 296.745 176.947C298.36 175.094 300.642 173.955 303.094 173.778C305.545 173.602 307.966 174.402 309.831 176.004C311.695 177.607 312.851 179.882 313.046 182.333C313.557 189.195 317.472 208.151 329.192 213.651C338.918 218.201 353.849 213.651 372.548 200.267C374.562 198.894 377.034 198.366 379.433 198.795C381.831 199.225 383.966 200.579 385.379 202.566C386.792 204.553 387.371 207.016 386.99 209.424C386.61 211.833 385.301 213.997 383.344 215.451C366.128 227.788 350.59 233.969 337.314 233.969Z" fill="#CDE5E8"/>
<path d="M386.821 251.368C389.398 244.554 391.806 237.668 394.602 230.927C392.685 230.781 390.777 230.529 388.888 230.173C380.368 228.705 372.427 224.887 365.957 219.15C359.497 213.263 354.501 205.947 351.368 197.785C347.802 188.367 345.798 178.43 345.435 168.366C344.592 144.906 349.047 121.559 358.468 100.061C362.534 90.9112 368.052 82.4802 374.809 75.0942C380.677 68.6128 387.992 63.6103 396.158 60.494C403.51 57.9557 411.357 57.1969 419.058 58.2797C426.759 59.3625 434.095 62.2561 440.462 66.7234C443.088 61.4673 445.933 56.2843 448.633 51.1255C451.818 45.0421 454.785 38.8127 457.605 32.559C458.821 29.8823 459.867 27.1082 460.985 24.3828C451.411 18.9988 441.007 15.2488 430.201 13.2867C415.128 10.1611 399.522 10.754 384.73 15.0144C370.536 19.2572 357.435 26.5391 346.334 36.355C334.476 47.0371 324.698 59.8253 317.495 74.0722C301.296 106.079 294.445 142.007 297.726 177.734C299.238 193.607 303.682 209.062 310.833 223.311C317.519 236.563 327.022 248.191 338.675 257.378C349.944 266.125 363.059 272.183 377.021 275.093C380.426 267.233 383.781 259.422 386.821 251.368Z" fill="#E7680C"/>
<path d="M512.851 111.449C511.366 95.5778 506.964 80.118 499.866 65.8475C493.175 52.5988 483.672 40.9723 472.024 31.7803C468.881 29.305 465.575 27.0449 462.128 25.0156C461.033 27.7653 459.988 30.515 458.772 33.1917C455.878 39.4454 452.985 45.6749 449.775 51.7826C447.051 56.9657 444.182 62.1731 441.532 67.4778C442.48 68.2078 443.404 68.9378 444.304 69.7409C450.723 75.6825 455.711 83.0041 458.893 91.1545C462.57 100.473 464.65 110.345 465.045 120.355C465.901 143.815 461.445 167.166 452.012 188.66C447.962 197.913 442.361 206.406 435.453 213.772C429.471 220.171 422.112 225.122 413.933 228.251C408.119 230.389 401.928 231.309 395.744 230.952C392.656 238.252 390.054 245.868 387.234 253.314C384.413 260.76 381.3 267.915 378.066 275.069L380.255 275.531C395.33 278.639 410.934 278.038 425.726 273.779C439.918 269.543 453.019 262.27 464.121 252.463C476.005 241.841 485.824 229.111 493.082 214.916C509.306 182.927 516.168 147.001 512.875 111.279L512.851 111.449Z" fill="#E7680C"/>
<path d="M408.659 285.435C393.496 282.775 379.209 276.461 367.03 267.039C355.381 257.847 345.879 246.22 339.188 232.971C332.048 218.709 327.605 203.249 326.081 187.37C322.789 151.648 329.651 115.722 345.875 83.7331C353.133 69.538 362.951 56.8083 374.835 46.1863C385.941 36.3703 399.052 29.0959 413.255 24.87C428.078 20.8318 443.626 20.2321 458.716 23.1164C473.806 26.0007 488.039 32.2931 500.331 41.5142C511.977 50.7084 521.479 62.3344 528.173 75.5813C535.321 89.8335 539.773 105.286 541.304 121.158C544.596 156.88 537.735 192.806 521.511 224.795C514.246 238.965 504.437 251.676 492.574 262.293C481.478 272.109 468.374 279.384 454.179 283.61C439.379 287.91 423.755 288.537 408.659 285.435ZM417.34 240.028C425.685 241.736 434.34 241.088 442.337 238.155C450.544 235.01 457.917 230.014 463.881 223.554C470.761 216.189 476.351 207.715 480.416 198.491C485.169 187.836 488.638 176.653 490.751 165.178C493.063 153.666 493.969 141.916 493.45 130.186C493.029 120.177 490.941 110.307 487.273 100.986C484.099 92.8381 479.11 85.5226 472.684 79.5964C466.317 73.9253 458.508 70.1271 450.118 68.6219C441.653 66.858 432.864 67.4814 424.732 70.4226C416.57 73.5471 409.257 78.5484 403.383 85.0228C396.616 92.4006 391.096 100.833 387.042 109.989C382.24 120.697 378.754 131.948 376.659 143.497C374.397 154.941 373.507 166.614 374.009 178.269C374.358 188.291 376.345 198.188 379.893 207.567C383.009 215.745 388.008 223.073 394.483 228.956C400.944 234.66 408.854 238.466 417.34 239.955V240.028Z" fill="#FC832B"/>
<path d="M572.815 148.606L573.52 182.843C573.52 182.843 563.794 191.603 555.016 182.843L558.225 144.299L572.815 148.606Z" fill="#0E1528"/>
<path d="M532.525 421.702C531.966 421.264 528.149 419.488 527.662 419.05C525.945 421.691 523.947 424.138 521.705 426.35C523.418 427.721 524.737 429.522 525.527 431.57C526.317 433.618 526.55 435.838 526.203 438.006C524.334 439.645 522.352 441.149 520.27 442.508C514.945 445.136 505.121 448.786 505.121 448.786L529.851 450.732L548.185 431.922C542.697 428.947 537.46 425.529 532.525 421.702Z" fill="#0E1528"/>
<path d="M435.674 423.041C431.735 422.359 426.75 425.474 423.516 423.041C423.078 426.576 422.875 430.136 422.908 433.699L386.434 448.786H433.145C433.558 443.797 432.659 439.052 433.34 434.404C433.631 432.044 435.236 425.328 435.674 423.041Z" fill="#0E1528"/>
<path d="M478.252 256.914L436.914 335.511C436.914 335.511 453.668 349.698 470.154 354.419L501.133 261.805L478.252 256.914Z" fill="#E9F0F7"/>
<path d="M523.504 428.321C525.961 425.656 528.16 422.764 530.07 419.683C519.371 410.509 514.143 401.067 499.626 384.812C493.62 378.072 509.523 339.552 513.389 333.079C520.343 321.472 521.413 313.053 526.836 293.172L486.495 308.259C476.769 342.691 465.68 377.147 476.915 393.573C488.757 410.947 509.814 424.939 519.954 431.922C520.343 432.19 523.164 428.078 523.504 428.321Z" fill="#0E1528"/>
<path d="M455.538 178.512C454.962 178.522 454.398 178.343 453.933 178.001C453.642 177.791 453.395 177.525 453.206 177.219C453.017 176.913 452.891 176.572 452.835 176.217C452.778 175.862 452.792 175.499 452.877 175.15C452.961 174.8 453.113 174.471 453.325 174.18C455.187 171.707 456.535 168.886 457.289 165.883C457.459 165.209 457.877 164.625 458.459 164.247C459.042 163.869 459.745 163.726 460.429 163.846C461.113 163.966 461.725 164.341 462.144 164.895C462.563 165.449 462.757 166.14 462.687 166.832C461.802 170.646 460.147 174.24 457.824 177.392C457.563 177.751 457.218 178.041 456.82 178.236C456.421 178.431 455.982 178.525 455.538 178.512Z" fill="#F6DAB0"/>
<path d="M523.991 301.493C536.003 268.472 546.264 216.666 550.106 196.007C548.168 195.215 546.187 194.533 544.173 193.963C540.599 192.989 536.343 191.821 532.671 192.965C530.865 193.59 529.148 194.449 527.565 195.52C526.656 198.221 525.948 200.987 525.45 203.793C525.45 203.793 499.626 253.166 482.848 286.82C497.14 289.904 510.97 294.837 523.991 301.493Z" fill="#0E1528"/>
<path d="M482.336 287.867L478.13 296.384C474.823 302.248 471.248 307.675 467.795 312.882C434.604 363.01 422.057 402.917 419.844 421.848C423.005 424.282 434.993 425.717 439.005 426.399C445.133 395.081 461.06 375.079 489.631 351.451C499.188 343.543 506.336 333.493 512.634 325.146C517.294 318.143 520.998 310.549 523.65 302.565C510.584 295.869 496.693 290.927 482.336 287.867Z" fill="#1F2843"/>
<path d="M450.118 301.616C447.926 301.605 445.807 300.82 444.136 299.4C442.465 297.98 441.348 296.015 440.982 293.852C440.616 291.689 441.024 289.466 442.135 287.575C443.246 285.683 444.988 284.244 447.054 283.511C458.337 279.594 475.674 264.045 487.346 247.571C500.065 229.177 513.758 211.477 528.367 194.548C529.169 193.587 530.155 192.797 531.268 192.226C532.381 191.655 533.598 191.314 534.845 191.224C536.093 191.133 537.346 191.296 538.529 191.7C539.713 192.105 540.803 192.744 541.734 193.58C542.666 194.415 543.419 195.43 543.95 196.563C544.481 197.697 544.778 198.925 544.824 200.176C544.87 201.427 544.664 202.674 544.218 203.844C543.772 205.013 543.095 206.08 542.228 206.982C528.111 223.382 514.865 240.512 502.544 258.302C491.018 274.654 470.641 295.046 453.157 301.105C452.178 301.436 451.152 301.608 450.118 301.616Z" fill="#F6DAB0"/>
<path d="M543.638 199.098H542.982C540.667 198.917 538.517 197.829 537.001 196.07C535.484 194.311 534.724 192.023 534.884 189.705C535.315 185.803 536.171 181.96 537.438 178.244C538.192 176.047 539.788 174.239 541.874 173.219C543.961 172.199 546.366 172.05 548.562 172.805C550.758 173.561 552.564 175.158 553.584 177.245C554.603 179.333 554.752 181.741 553.997 183.938C553.208 186.227 552.662 188.592 552.368 190.995C552.191 193.194 551.196 195.247 549.58 196.748C547.963 198.248 545.843 199.087 543.638 199.098Z" fill="#F6DAB0"/>
<path d="M546.07 189.852C547.611 191.61 549.295 193.237 551.103 194.719C551.754 193.586 552.145 192.323 552.246 191.02C552.54 188.617 553.086 186.252 553.875 183.963C554.554 181.966 554.49 179.79 553.693 177.836C552.897 175.882 551.423 174.281 549.542 173.328C547.66 172.374 545.498 172.133 543.453 172.647C541.408 173.162 539.617 174.398 538.41 176.128C539.261 181.019 543.298 186.592 546.07 189.852Z" fill="#F6DAB0"/>
<path d="M546.07 189.852C547.611 191.61 549.295 193.237 551.103 194.719C551.754 193.586 552.145 192.323 552.246 191.02C552.54 188.617 553.086 186.252 553.875 183.963C554.554 181.966 554.49 179.79 553.693 177.836C552.897 175.882 551.423 174.281 549.542 173.328C547.66 172.374 545.498 172.133 543.453 172.647C541.408 173.162 539.617 174.398 538.41 176.128C539.261 181.019 543.298 186.592 546.07 189.852Z" fill="black" fill-opacity="0.1"/>
<path d="M568.683 170.871C568.636 173.055 568.157 175.207 567.275 177.205C566.392 179.202 565.123 181.005 563.541 182.51C561.958 184.014 560.094 185.19 558.055 185.97C556.016 186.749 553.844 187.118 551.662 187.053C549.48 187.006 547.329 186.527 545.333 185.643C543.336 184.76 541.535 183.49 540.032 181.906C538.528 180.323 537.353 178.457 536.574 176.417C535.795 174.377 535.427 172.202 535.492 170.019L535.735 158.534C535.785 156.35 536.266 154.198 537.149 152.2C538.033 150.203 539.302 148.4 540.883 146.894C542.464 145.388 544.327 144.21 546.365 143.426C548.402 142.643 550.574 142.269 552.756 142.328C554.938 142.378 557.089 142.859 559.085 143.743C561.081 144.627 562.883 145.897 564.388 147.479C565.892 149.062 567.07 150.926 567.853 152.965C568.636 155.004 569.009 157.178 568.951 159.361L568.683 170.871Z" fill="#F7DAB0"/>
<path d="M436.961 299.062C432.44 298.896 427.996 297.846 423.878 295.971C423.256 295.659 422.776 295.122 422.534 294.469C422.293 293.816 422.308 293.095 422.576 292.453C422.845 291.81 423.347 291.294 423.981 291.007C424.616 290.721 425.335 290.686 425.994 290.91C433.289 293.952 438.954 294.39 442.602 292.175C443.221 291.801 443.963 291.688 444.666 291.861C445.368 292.035 445.973 292.48 446.347 293.1C446.721 293.719 446.833 294.462 446.66 295.165C446.487 295.868 446.042 296.473 445.423 296.847C442.862 298.356 439.932 299.123 436.961 299.062Z" fill="#F6DAB0"/>
<path d="M440.246 303.026C436.247 302.921 432.277 302.316 428.428 301.225L427.188 300.933C426.538 300.715 425.992 300.262 425.659 299.662C425.325 299.062 425.228 298.358 425.387 297.69C425.545 297.023 425.948 296.438 426.515 296.052C427.082 295.666 427.774 295.506 428.453 295.604L429.717 295.896C436.447 298.045 443.67 298.104 450.435 296.067C450.783 295.972 451.146 295.948 451.504 295.996C451.861 296.045 452.206 296.164 452.516 296.348C452.827 296.532 453.097 296.776 453.312 297.066C453.527 297.356 453.681 297.687 453.766 298.038C453.943 298.741 453.836 299.486 453.467 300.11C453.098 300.735 452.498 301.188 451.796 301.371C448.031 302.408 444.15 302.964 440.246 303.026Z" fill="#F6DAB0"/>
<path d="M436.767 293.659C431.349 293.578 426.129 291.607 422.007 288.086C421.741 287.844 421.525 287.552 421.372 287.226C421.219 286.9 421.132 286.547 421.116 286.187C421.1 285.827 421.156 285.468 421.279 285.13C421.403 284.792 421.593 284.482 421.837 284.217C422.332 283.69 423.013 283.377 423.736 283.345C424.458 283.313 425.164 283.565 425.703 284.047C427.756 285.775 430.182 287.002 432.79 287.631C435.398 288.26 438.116 288.275 440.731 287.673C441.079 287.578 441.442 287.553 441.8 287.601C442.158 287.65 442.502 287.77 442.812 287.954C443.123 288.138 443.394 288.382 443.608 288.672C443.823 288.962 443.977 289.293 444.062 289.644C444.24 290.347 444.132 291.092 443.763 291.716C443.394 292.341 442.794 292.793 442.092 292.976C440.352 293.42 438.563 293.649 436.767 293.659Z" fill="#F6DAB0"/>
<path d="M442.507 290.713H442.19C439.511 290.461 436.923 289.602 434.623 288.203C432.323 286.803 430.371 284.899 428.914 282.634C428.559 281.989 428.475 281.229 428.68 280.522C428.886 279.815 429.363 279.218 430.008 278.863C430.653 278.508 431.412 278.424 432.119 278.629C432.826 278.834 433.422 279.312 433.777 279.958C434.799 281.475 436.149 282.742 437.728 283.665C439.307 284.587 441.073 285.142 442.896 285.287C443.618 285.329 444.294 285.656 444.775 286.197C445.256 286.738 445.503 287.448 445.461 288.17C445.419 288.893 445.092 289.57 444.552 290.051C444.011 290.533 443.302 290.779 442.58 290.738L442.507 290.713Z" fill="#F6DAB0"/>
<path d="M475.21 182.477H474.772C470.249 181.723 457.751 179.776 454.979 179.776C454.598 179.812 454.213 179.768 453.851 179.647C453.488 179.526 453.154 179.33 452.871 179.072C452.588 178.814 452.362 178.5 452.207 178.15C452.053 177.8 451.973 177.421 451.973 177.039C451.973 176.656 452.053 176.277 452.207 175.927C452.362 175.577 452.588 175.263 452.871 175.005C453.154 174.747 453.488 174.551 453.851 174.43C454.213 174.309 454.598 174.265 454.979 174.301C458.821 174.301 473.945 176.734 475.672 177.075C476.34 177.202 476.937 177.572 477.348 178.114C477.759 178.656 477.955 179.331 477.897 180.009C477.84 180.687 477.533 181.319 477.037 181.784C476.54 182.249 475.889 182.513 475.21 182.526V182.477Z" fill="#F7DAB0"/>
<path d="M473.46 188.221C473.226 188.255 472.989 188.255 472.755 188.221C466.451 186.467 460.032 185.158 453.545 184.303C452.823 184.253 452.149 183.922 451.667 183.381C451.185 182.84 450.934 182.131 450.968 181.407C450.986 181.047 451.076 180.694 451.232 180.369C451.388 180.044 451.607 179.753 451.876 179.513C452.145 179.273 452.459 179.089 452.8 178.971C453.141 178.854 453.502 178.805 453.861 178.828C460.728 179.702 467.523 181.077 474.19 182.94C474.851 183.094 475.43 183.489 475.815 184.048C476.201 184.606 476.364 185.289 476.272 185.962C476.181 186.634 475.842 187.249 475.322 187.685C474.802 188.121 474.138 188.346 473.46 188.318V188.221Z" fill="#F6DAB0"/>
<path d="M472.146 194.256C471.864 194.255 471.584 194.206 471.319 194.11C458.991 190.143 455.951 189.9 454.298 189.754C453.526 189.722 452.76 189.608 452.012 189.413C451.645 189.339 451.296 189.19 450.989 188.976C450.681 188.762 450.42 188.487 450.222 188.169C450.024 187.85 449.894 187.494 449.839 187.123C449.783 186.752 449.805 186.374 449.901 186.011C449.997 185.648 450.167 185.309 450.399 185.015C450.631 184.72 450.921 184.477 451.251 184.298C451.581 184.12 451.944 184.011 452.317 183.979C452.691 183.946 453.067 183.99 453.423 184.108C453.852 184.222 454.292 184.287 454.736 184.303C456.705 184.473 460.037 184.741 472.973 188.902C473.587 189.111 474.107 189.53 474.442 190.085C474.777 190.641 474.905 191.297 474.803 191.938C474.702 192.579 474.377 193.163 473.886 193.587C473.395 194.011 472.77 194.248 472.122 194.256H472.146Z" fill="#F6DAB0"/>
<path d="M466.75 198.637H466.531C454.203 197.736 453.692 191.045 453.668 190.266H459.139V190.096C459.139 190.096 459.698 192.772 466.945 193.283C467.627 193.367 468.253 193.704 468.699 194.228C469.145 194.751 469.379 195.423 469.354 196.11C469.33 196.797 469.049 197.451 468.567 197.941C468.085 198.431 467.437 198.723 466.75 198.758V198.637Z" fill="#F6DAB0"/>
<path d="M456.389 195.399C454.463 194.636 452.405 194.264 450.334 194.304C447.222 194.304 443.039 189 443.039 183.524C443.039 183.524 441.507 167.367 458.577 174.667L456.389 195.399Z" fill="#F7DAB0"/>
<path d="M510.13 243.41L486.203 361.257C486.203 361.257 523.261 370.188 545.972 357.096L551.711 193.355C551.711 193.355 526.301 184.473 510.13 243.41Z" fill="#E9F0F7"/>
<path d="M515.674 308.259L538.58 307.018C538.58 307.018 539.115 342.083 525.449 340.72C525.449 340.72 506.701 344.808 515.674 308.259Z" fill="#E1F3F6"/>
<path d="M544.438 190.533C541.736 188.106 538.181 186.853 534.556 187.049C530.931 187.246 527.532 188.875 525.107 191.579C510.387 208.676 496.588 226.546 483.769 245.113C482.189 247.352 480.487 249.615 478.639 251.853L476.207 254.846L478.857 257.645C481.678 260.638 484.645 263.534 487.514 266.332L492.134 270.931L495.514 274.338L498.602 270.663C501.35 267.378 503.879 264.093 506.14 260.93C518.366 243.284 531.498 226.284 545.484 209.999C546.697 208.655 547.633 207.083 548.237 205.376C548.841 203.668 549.102 201.858 549.005 200.049C548.908 198.239 548.454 196.467 547.671 194.834C546.887 193.201 545.788 191.739 544.438 190.533Z" fill="#96A0B5"/>
<path d="M481.595 244.268L472.348 254.568L496.422 276.214L505.669 265.915L481.595 244.268Z" fill="#F8FDFF"/>
<path d="M518.957 177.441L540.015 185.69C540.015 185.69 548.963 142.133 542.447 135.587C542.422 135.587 518.957 133.373 518.957 177.441Z" fill="#0E1528"/>
<path d="M543.639 143.178C544.392 144.298 560.66 155.199 573.523 152.182C573.523 152.182 571.335 132.909 541.426 135.683L543.639 143.178Z" fill="#0E1528"/>
<path d="M556.256 163.765C556.261 165.58 555.728 167.356 554.723 168.868C553.719 170.38 552.289 171.559 550.614 172.257C548.939 172.955 547.095 173.141 545.316 172.789C543.536 172.438 541.9 171.566 540.615 170.284C539.331 169.002 538.455 167.368 538.1 165.588C537.744 163.807 537.924 161.962 538.617 160.284C539.311 158.606 540.485 157.172 541.994 156.163C543.502 155.154 545.275 154.615 547.089 154.615C548.292 154.612 549.483 154.846 550.595 155.304C551.707 155.763 552.718 156.436 553.57 157.286C554.421 158.136 555.097 159.146 555.558 160.258C556.019 161.369 556.256 162.561 556.256 163.765Z" stroke="#96A0B5" stroke-width="0.867949" stroke-miterlimit="10"/>
<path d="M576.903 165.519C576.903 167.092 576.436 168.631 575.563 169.939C574.689 171.248 573.447 172.268 571.994 172.87C570.541 173.472 568.943 173.63 567.4 173.323C565.858 173.016 564.441 172.258 563.329 171.145C562.217 170.032 561.46 168.614 561.153 167.071C560.846 165.527 561.003 163.927 561.605 162.473C562.207 161.02 563.226 159.777 564.534 158.902C565.841 158.028 567.379 157.561 568.951 157.561C569.997 157.558 571.032 157.762 571.998 158.161C572.964 158.559 573.842 159.145 574.581 159.885C575.32 160.624 575.906 161.503 576.304 162.47C576.703 163.437 576.906 164.473 576.903 165.519Z" stroke="#96A0B5" stroke-width="0.754978" stroke-miterlimit="10"/>
<path d="M556.258 163.766C557.052 163.43 557.92 163.312 558.775 163.423C559.629 163.535 560.439 163.871 561.121 164.398" stroke="#96A0B5" stroke-width="0.867949" stroke-miterlimit="10"/>
<path d="M290.019 179.752H289.362C287.047 179.584 284.894 178.502 283.375 176.745C281.857 174.988 281.098 172.7 281.265 170.383C281.671 166.469 282.528 162.615 283.818 158.898C284.193 157.81 284.779 156.806 285.542 155.945C286.305 155.083 287.229 154.38 288.264 153.876C289.298 153.372 290.421 153.077 291.569 153.008C292.717 152.938 293.868 153.096 294.955 153.471C296.042 153.847 297.045 154.433 297.906 155.196C298.767 155.96 299.469 156.885 299.973 157.92C300.476 158.955 300.771 160.079 300.841 161.228C300.91 162.377 300.753 163.528 300.377 164.616C299.589 166.898 299.035 169.254 298.724 171.649C298.57 173.852 297.585 175.915 295.969 177.419C294.353 178.923 292.226 179.757 290.019 179.752Z" fill="#0086CF"/>
<path d="M284.816 422.992C293.403 427.014 302.7 429.297 312.172 429.708C321.631 412.869 350.13 367.244 324.209 329.818L287.54 310.084C287.54 310.084 324.209 348.385 284.816 422.992Z" fill="#0E1528"/>
<path d="M303.783 437.909C303.783 437.909 307.163 431.022 309.814 426.423C307.844 426.18 298.944 425.815 295.224 424.403C290.497 432.931 285.098 441.068 279.078 448.737H328.343L303.783 437.909Z" fill="#0E1528"/>
<path d="M364.719 332.007C358.591 320.108 314.092 284.265 310.08 263.679C309.715 261.853 309.399 259.98 309.132 258.082C301.983 261.854 292.718 262.949 285.375 263.265C277.034 263.679 272.05 264.19 263.977 260.272C264.657 273.047 262.591 285.384 270.031 298.305C284.816 324.002 333.91 345.975 339.405 354.467C350.202 371.209 353.995 407.539 357.618 429.707C363.405 429.707 377.071 429.439 382.737 427.444C380.84 416.08 383.928 369.287 364.719 332.007Z" fill="#1F2843"/>
<path d="M380.063 435.913C380.063 435.913 378.458 429.44 377.996 426.423C372.355 428.394 369.072 426.423 363.406 426.423C364.282 431.922 363.625 442.191 364.136 448.323H410.847L380.063 435.913Z" fill="#0E1528"/>
<path d="M285.714 269.981C292.814 269.665 307.768 267.669 313.75 261.683C312.534 251.95 308.157 236.181 309.714 223.528C314.917 180.628 293.981 167.78 293.981 167.78C293.981 167.78 284.255 161.039 276.546 169.094C264.753 181.26 253.276 215.547 254.419 266.282C262.54 270.468 277.179 270.37 285.714 269.981Z" fill="#E9F0F7"/>
<path d="M393.045 283.511C392.335 283.51 391.626 283.436 390.93 283.292C357.203 275.457 328.656 255.236 308.255 224.892C299.125 211.361 292.167 196.483 287.635 180.799C287.132 178.442 287.562 175.981 288.834 173.934C290.106 171.887 292.121 170.413 294.455 169.821C296.79 169.229 299.264 169.565 301.356 170.759C303.448 171.953 304.997 173.912 305.677 176.224C309.793 190.079 316.027 203.212 324.157 215.158C342.03 241.658 365.908 258.545 395.136 265.334C397.379 265.83 399.359 267.139 400.694 269.01C402.028 270.88 402.623 273.179 402.363 275.463C402.103 277.747 401.007 279.853 399.286 281.375C397.565 282.898 395.342 283.728 393.045 283.706V283.511Z" fill="#F6DAB0"/>
<path d="M372.547 255.553C353.401 246.247 337.146 231.906 325.52 214.064C317.514 202.291 311.363 189.357 307.282 175.714C306.933 174.317 306.312 173.003 305.453 171.848C304.595 170.692 303.516 169.717 302.28 168.98C301.044 168.243 299.675 167.758 298.25 167.552C296.826 167.346 295.375 167.424 293.982 167.782C292.588 168.131 291.277 168.752 290.124 169.61C288.972 170.467 287.999 171.544 287.263 172.778C286.526 174.013 286.04 175.38 285.833 176.803C285.626 178.225 285.701 179.674 286.054 181.068V181.287C290.201 198.625 297.264 215.132 306.942 230.1C322.477 253.927 344.894 272.455 371.21 283.22C371.404 283.296 371.609 283.337 371.818 283.342C372.148 283.342 372.471 283.24 372.742 283.05C372.963 282.898 373.145 282.695 373.272 282.458C373.399 282.221 373.468 281.956 373.471 281.687V257.037C373.477 256.727 373.393 256.422 373.229 256.158C373.065 255.895 372.828 255.685 372.547 255.553Z" fill="#96A0B5"/>
<path d="M399.951 284.192C396.765 284.165 393.589 283.831 390.468 283.194C389.801 283.007 389.229 282.575 388.867 281.985C388.505 281.394 388.379 280.689 388.514 280.009C388.649 279.33 389.036 278.726 389.596 278.32C390.157 277.913 390.85 277.733 391.537 277.816C399.683 279.447 406.492 278.838 411.744 276.04C412.39 275.703 413.143 275.635 413.839 275.849C414.535 276.063 415.119 276.542 415.465 277.184C415.634 277.501 415.739 277.849 415.773 278.208C415.807 278.566 415.77 278.927 415.664 279.271C415.557 279.615 415.384 279.935 415.154 280.211C414.923 280.488 414.641 280.716 414.322 280.882C409.88 283.163 404.941 284.3 399.951 284.192Z" fill="#F6DAB0"/>
<path d="M400.341 278.134C398.998 278.13 397.658 278.032 396.329 277.842C395.953 277.813 395.586 277.707 395.253 277.531C394.919 277.354 394.625 277.111 394.39 276.816C394.154 276.521 393.982 276.181 393.884 275.816C393.786 275.452 393.763 275.071 393.819 274.697C393.874 274.324 394.005 273.966 394.205 273.645C394.405 273.325 394.668 273.049 394.979 272.835C395.289 272.621 395.641 272.473 396.011 272.401C396.382 272.329 396.763 272.334 397.131 272.415C403.007 273.02 408.93 271.868 414.153 269.106C414.782 268.753 415.526 268.662 416.222 268.854C416.918 269.045 417.511 269.503 417.873 270.128C418.055 270.437 418.174 270.779 418.222 271.135C418.271 271.491 418.248 271.852 418.155 272.199C418.062 272.545 417.901 272.87 417.682 273.154C417.462 273.437 417.188 273.674 416.876 273.851C411.784 276.578 406.115 278.046 400.341 278.134Z" fill="#F6DAB0"/>
<path d="M397.91 272.658H396.622C395.919 272.578 395.273 272.23 394.82 271.686C394.368 271.142 394.142 270.444 394.19 269.738C394.208 269.378 394.298 269.026 394.455 268.702C394.611 268.379 394.83 268.089 395.1 267.851C395.369 267.613 395.684 267.431 396.024 267.316C396.365 267.202 396.725 267.156 397.084 267.183C398.895 267.352 400.721 267.12 402.432 266.501C404.142 265.883 405.696 264.894 406.98 263.606C407.456 263.101 408.105 262.796 408.796 262.75C409.488 262.704 410.171 262.921 410.71 263.358C411.248 263.795 411.601 264.42 411.699 265.106C411.796 265.793 411.631 266.491 411.236 267.061C409.543 268.892 407.477 270.338 405.179 271.304C402.88 272.269 400.402 272.731 397.91 272.658Z" fill="#F6DAB0"/>
<path d="M388.45 268.061C387.769 267.996 387.137 267.68 386.676 267.174C386.216 266.667 385.961 266.008 385.961 265.323C385.961 264.638 386.216 263.979 386.676 263.472C387.137 262.966 387.769 262.65 388.45 262.585C390.154 262.506 391.818 262.054 393.327 261.259C394.836 260.464 396.151 259.347 397.18 257.986C397.593 257.389 398.225 256.981 398.939 256.851C399.653 256.721 400.389 256.88 400.985 257.293C401.582 257.706 401.99 258.339 402.12 259.053C402.25 259.768 402.091 260.504 401.678 261.101C400.14 263.184 398.152 264.892 395.861 266.097C393.57 267.302 391.037 267.973 388.45 268.061Z" fill="#F6DAB0"/>
<path d="M379.503 206.228C379.069 206.229 378.642 206.126 378.257 205.927C377.872 205.727 377.54 205.438 377.29 205.084C374.966 201.942 373.31 198.356 372.427 194.548C372.332 194.179 372.314 193.796 372.375 193.42C372.436 193.045 372.575 192.686 372.781 192.367C372.988 192.048 373.258 191.775 373.575 191.566C373.892 191.357 374.249 191.215 374.624 191.151C374.998 191.087 375.382 191.101 375.751 191.193C376.12 191.285 376.465 191.452 376.766 191.685C377.067 191.917 377.316 192.209 377.499 192.543C377.681 192.876 377.792 193.244 377.825 193.623C378.593 196.614 379.939 199.425 381.788 201.896C382.001 202.187 382.153 202.516 382.237 202.866C382.322 203.215 382.336 203.578 382.279 203.933C382.223 204.288 382.097 204.629 381.908 204.935C381.72 205.241 381.472 205.507 381.181 205.717C380.691 206.063 380.102 206.242 379.503 206.228Z" fill="#F6DAB0"/>
<path d="M380.085 207.565H379.55C373.593 206.772 367.589 206.382 361.58 206.397C361.199 206.433 360.815 206.389 360.452 206.268C360.089 206.147 359.756 205.951 359.473 205.693C359.19 205.436 358.964 205.121 358.809 204.771C358.654 204.421 358.574 204.042 358.574 203.66C358.574 203.277 358.654 202.898 358.809 202.548C358.964 202.198 359.19 201.884 359.473 201.626C359.756 201.368 360.089 201.172 360.452 201.051C360.815 200.93 361.199 200.886 361.58 200.922C367.94 200.899 374.294 201.322 380.595 202.187C381.244 202.337 381.815 202.718 382.205 203.258C382.594 203.798 382.774 204.461 382.711 205.124C382.649 205.787 382.348 206.405 381.865 206.863C381.382 207.32 380.75 207.587 380.085 207.614V207.565Z" fill="#F6DAB0"/>
<path d="M360.075 213.138C359.352 213.183 358.642 212.939 358.099 212.46C357.556 211.981 357.226 211.305 357.181 210.582C357.136 209.86 357.38 209.149 357.858 208.606C358.337 208.062 359.012 207.732 359.734 207.687C361.485 207.468 376.756 205.594 381.813 206.47C382.486 206.64 383.07 207.058 383.448 207.641C383.825 208.224 383.968 208.928 383.848 209.612C383.728 210.296 383.354 210.91 382.8 211.329C382.247 211.748 381.556 211.942 380.865 211.872C377.728 211.312 366.664 212.335 360.415 213.113L360.075 213.138Z" fill="#F6DAB0"/>
<path d="M363.697 219.343C363.032 219.316 362.4 219.049 361.917 218.591C361.434 218.133 361.133 217.516 361.071 216.853C361.008 216.19 361.188 215.527 361.578 214.987C361.967 214.447 362.538 214.066 363.187 213.916C367.129 213.25 371.015 212.282 374.81 211.021C376.293 210.534 378.165 209.95 380.962 209.122C381.657 208.935 382.398 209.027 383.025 209.38C383.652 209.733 384.116 210.319 384.317 211.01C384.518 211.702 384.439 212.445 384.098 213.08C383.757 213.714 383.181 214.189 382.494 214.403C379.77 215.182 378.02 215.741 376.463 216.252C372.492 217.568 368.428 218.585 364.305 219.294L363.697 219.343Z" fill="#F7DAB0"/>
<path d="M369.533 223.698C368.854 223.686 368.203 223.422 367.706 222.957C367.21 222.492 366.903 221.859 366.846 221.181C366.788 220.504 366.984 219.828 367.395 219.286C367.806 218.745 368.403 218.374 369.071 218.248C377.923 216.739 379.698 213.381 379.698 213.381C379.962 212.736 380.46 212.216 381.093 211.925C381.725 211.634 382.445 211.594 383.106 211.813C383.766 212.033 384.319 212.495 384.653 213.107C384.986 213.718 385.075 214.434 384.901 215.109C384.561 216.179 382.202 221.557 369.995 223.65L369.533 223.698Z" fill="#F6DAB0"/>
<path d="M380.087 220.39L377.996 198.076C380.72 198.294 383.254 199.558 385.067 201.604C386.88 203.65 387.832 206.318 387.723 209.05C387.747 212.433 386.75 216.278 380.087 220.39Z" fill="#F6DAB0"/>
<path d="M318.493 147.681C319.672 152.169 319.023 156.942 316.689 160.952C314.355 164.962 310.526 167.882 306.043 169.07C301.555 170.257 296.779 169.611 292.766 167.275C288.753 164.939 285.832 161.103 284.645 156.611L281.557 144.883C280.966 142.66 280.818 140.343 281.123 138.063C281.428 135.784 282.179 133.587 283.333 131.598C284.487 129.609 286.022 127.867 287.849 126.472C289.676 125.078 291.76 124.057 293.982 123.469C296.205 122.878 298.522 122.732 300.801 123.038C303.08 123.345 305.277 124.098 307.265 125.256C309.252 126.413 310.992 127.951 312.385 129.783C313.778 131.614 314.796 133.702 315.381 135.928L318.493 147.681Z" fill="#F7DAB0"/>
<path d="M316.839 141.451C315.678 145.21 313.577 148.61 310.736 151.33C307.112 154.333 302.744 156.298 298.095 157.018C293.446 157.738 288.689 157.185 284.328 155.418L284.644 156.61C285.917 161.002 288.855 164.721 292.83 166.974C296.806 169.228 301.504 169.837 305.922 168.671C310.34 167.505 314.128 164.658 316.476 160.736C318.825 156.814 319.549 152.128 318.492 147.68L316.839 141.451Z" fill="#0E1528"/>
<path d="M284.595 155.979C278.03 151.745 270.93 135.709 281.313 132.205C287.732 130.015 285.155 149.822 285.155 155.419L284.595 155.979Z" fill="#0E1528"/>
<path d="M279.322 133.52C271.395 127.753 281.243 111.473 300.842 111.473C313 111.473 313 120.769 304.514 125.782C297.535 129.943 286.763 127.509 281.535 134.615L279.322 133.52Z" fill="#0E1528"/>
<path d="M316.841 145.052C313.012 139.413 309.544 133.537 306.458 127.459C305.096 124.417 303.248 119.21 309.376 122.908C314.482 125.999 317.279 136.925 316.792 142.375L316.841 145.052Z" fill="#0E1528"/>
<path d="M178.189 183.988C175.015 186.67 171.987 189.521 169.119 192.529L129.605 275.117L159.004 237.108L190.25 172.502C186.189 176.371 182.25 180.216 178.189 183.988Z" fill="#E7680C"/>
<path d="M154.75 170.432C157.619 166.514 160.367 161.915 163.625 157.851L94.4701 124.076L28.8164 130.646L143.783 183.694C147.601 179.387 151.394 175.031 154.75 170.432Z" fill="#E7680C"/>
<path d="M164.622 158.34C160.95 162.939 157.959 168.366 154.433 172.648C151.272 176.517 148.086 180.362 144.828 184.158L197.108 208.273L216.075 183.477L164.622 158.34Z" fill="#E7680C"/>
<path d="M85.9091 254.189L106.189 211.8L0 160.943L17.0213 125.294L191.903 22.2168L239.612 45.0905L169.484 191.701L198.347 205.546L178.894 246.5L149.982 232.654L129.727 275.043L85.9091 254.189ZM164.572 89.7427L161.897 88.4531L68.3528 143.252L125.812 170.774L164.572 89.7427Z" fill="#FC832B"/>
<path d="M198.42 205.572L216.074 183.477L202.214 214.259L178.141 247.912L198.42 205.572Z" fill="#244AB4"/>
<path d="M191.638 171.261L260.598 19.9785L239.687 45.0909L169.559 191.702C171.455 189.828 190.519 172.381 191.638 171.261Z" fill="#E7680C"/>
<path d="M17.0469 125.294L48.2202 98.1376L219.09 0L191.929 22.2166L17.0469 125.294Z" fill="#E7680C"/>
<path d="M191.93 22.2166L239.662 45.0903L260.599 20.0023L219.091 0L191.93 22.2166Z" fill="#E7680C"/>
<path d="M133.351 132.716C127.491 128.53 123.455 130.282 120.634 130.818C118.747 131.07 116.832 130.638 115.236 129.601C114.936 129.406 114.6 129.272 114.248 129.207C113.896 129.142 113.535 129.147 113.185 129.221C112.835 129.296 112.503 129.439 112.208 129.642C111.914 129.845 111.662 130.104 111.467 130.404C111.272 130.704 111.138 131.04 111.073 131.392C111.008 131.744 111.013 132.106 111.087 132.456C111.162 132.806 111.305 133.139 111.507 133.434C111.71 133.729 111.969 133.981 112.269 134.176C114.349 135.41 116.603 136.32 118.956 136.877C114.409 141.038 109.765 146.051 109.497 146.343C109.253 146.607 109.063 146.917 108.94 147.255C108.816 147.594 108.76 147.953 108.776 148.313C108.792 148.672 108.879 149.025 109.032 149.351C109.185 149.677 109.401 149.97 109.667 150.212C110.171 150.675 110.832 150.927 111.515 150.917C111.894 150.915 112.267 150.837 112.614 150.686C112.961 150.536 113.274 150.316 113.534 150.041C113.534 150.041 116.816 146.489 120.415 143.009C117.059 147.219 113.923 151.574 113.339 152.377C113.043 152.789 112.867 153.274 112.829 153.779C112.792 154.284 112.894 154.79 113.126 155.24C113.357 155.691 113.708 156.069 114.141 156.332C114.573 156.596 115.07 156.734 115.576 156.733C116.009 156.73 116.435 156.625 116.82 156.427C117.204 156.228 117.536 155.941 117.789 155.589C119.588 153.156 122.117 149.701 124.525 146.659C123.625 148.435 122.482 150.455 120.221 154.129C120.029 154.434 119.899 154.774 119.84 155.129C119.78 155.484 119.791 155.847 119.873 156.198C119.954 156.549 120.104 156.88 120.314 157.172C120.524 157.464 120.79 157.712 121.096 157.901C121.713 158.282 122.455 158.404 123.161 158.24C123.867 158.075 124.479 157.639 124.865 157.025L127.297 153.18C127.059 153.768 127.034 154.419 127.225 155.023C127.416 155.627 127.811 156.146 128.342 156.49C128.785 156.774 129.3 156.926 129.826 156.928C130.28 156.93 130.728 156.818 131.128 156.601C131.527 156.384 131.865 156.069 132.111 155.687C134.153 152.74 135.629 149.44 136.464 145.953H136.585C137.996 138.361 136.148 134.711 133.351 132.716ZM127.832 151.988C128.731 150.406 129.339 149.19 129.923 147.997C129.329 149.379 128.63 150.714 127.832 151.988Z" fill="#F7DAB0"/>
<path d="M49.5326 163.766C40.876 163.279 28.2802 180.239 41.1435 184.863C29.5203 184.595 26.5538 201.069 37.3258 205.619C18.651 201.969 20.8151 226.206 29.6662 234.99C28.1642 234.803 26.6393 234.957 25.205 235.441C23.7708 235.925 22.4641 236.727 21.3821 237.786C20.3002 238.846 19.4709 240.135 18.9559 241.56C18.441 242.984 18.2536 244.506 18.4078 246.013C19.3319 252.291 21.8121 261.003 37.3502 265.675C52.8882 270.347 62.3958 261.611 70.1284 253.362C74.9916 263.485 99.5267 249.809 96.8762 237.716C106.092 240.976 114.36 230.415 114.554 222.118C114.749 213.82 109.01 207.712 103.563 202.407C107.405 198.879 108.135 192.382 107.113 187.394C105.436 179.12 95.1011 178.317 95.1011 171.723C95.1011 169.435 95.5388 162.281 93.5692 159.142C90.4567 154.129 85.0342 149.19 78.2014 151.623C49.5326 137.996 49.5326 163.766 49.5326 163.766Z" fill="#0E1528"/>
<path d="M66.2632 429.708C58.3847 428.321 57.096 428.711 49.2418 426.812L31.1992 448.908H101.254L60.5732 437.957L66.2632 429.708Z" fill="#0E1528"/>
<path d="M196.742 436.035L192.584 430.584C188.896 433.05 184.919 435.052 180.742 436.546L191.806 448.907H232.852L196.742 436.035Z" fill="#0E1528"/>
<path d="M41.8711 429.781C49.7252 431.703 57.5793 433.699 65.5307 435.037L123.379 363.813L113.652 335.512L73.1417 288.768L84.8135 355.004L41.8711 429.781Z" fill="#0E1528"/>
<path d="M120.534 269.155C104.68 264.945 83.1361 270.274 67.6953 276.114C67.6953 276.114 77.1786 313.856 83.4036 325.098C101.495 357.875 179.842 439.685 179.842 439.685C184.146 438.225 192.437 432.166 196.231 429.708L120.534 269.155Z" fill="#1F2843"/>
<path d="M65.6302 290.859C80.9494 285.116 111.831 275.383 127.491 279.325C127.491 279.325 106.579 230.22 97.0953 219.391C90.7002 212.091 55.7578 191.481 55.7578 218.394C56.1707 242.855 59.4847 267.18 65.6302 290.859Z" fill="#E9F0F7"/>
<path d="M79.1987 216.107L78.5908 216.302C76.3467 216.905 73.9551 216.593 71.9404 215.434C69.9257 214.276 68.4523 212.365 67.8431 210.121C66.9612 206.289 66.4965 202.373 66.457 198.441C66.5753 196.194 67.5504 194.079 69.1814 192.53C70.8124 190.982 72.9749 190.119 75.223 190.119C77.4712 190.119 79.6336 190.982 81.2646 192.53C82.8956 194.079 83.8707 196.194 83.989 198.441C83.9788 200.896 84.2398 203.344 84.7671 205.741C85.2852 207.852 85.0026 210.081 83.974 211.995C82.9455 213.91 81.2441 215.375 79.1987 216.107Z" fill="#F7DAB0"/>
<path d="M85.1058 207.567C85.0681 206.927 84.9704 206.291 84.814 205.669C84.2867 203.272 84.0257 200.824 84.0359 198.369C83.9176 196.122 82.9425 194.007 81.3115 192.458C79.6805 190.91 77.5181 190.047 75.2699 190.047C73.0217 190.047 70.8593 190.91 69.2283 192.458C67.5973 194.007 66.6222 196.122 66.5039 198.369C66.5039 198.491 66.5039 198.758 66.5039 199.123C70.8322 204.063 77.9568 206.375 85.1058 207.567Z" fill="#F6DAB0"/>
<path d="M85.1058 207.567C85.0681 206.927 84.9704 206.291 84.814 205.669C84.2867 203.272 84.0257 200.824 84.0359 198.369C83.9176 196.122 82.9425 194.007 81.3115 192.458C79.6805 190.91 77.5181 190.047 75.2699 190.047C73.0217 190.047 70.8593 190.91 69.2283 192.458C67.5973 194.007 66.6222 196.122 66.5039 198.369C66.5039 198.491 66.5039 198.758 66.5039 199.123C70.8322 204.063 77.9568 206.375 85.1058 207.567Z" fill="black" fill-opacity="0.1"/>
<path d="M93.7859 181.164C95.1425 185.343 94.7851 189.89 92.7925 193.805C90.7998 197.72 87.3349 200.683 83.1597 202.042C78.9806 203.394 74.4366 203.034 70.5221 201.041C66.6075 199.048 63.6412 195.585 62.2721 191.409L58.722 180.458C58.0508 178.388 57.7939 176.205 57.9659 174.035C58.138 171.865 58.7356 169.75 59.7247 167.811C60.7137 165.872 62.0749 164.147 63.7303 162.735C65.3857 161.323 67.3029 160.251 69.3724 159.58C73.5483 158.229 78.089 158.59 81.9996 160.583C85.9103 162.576 88.8719 166.04 90.2357 170.214L93.7859 181.164Z" fill="#F7DAB0"/>
<path d="M191.196 172.355C190.855 172.082 190.456 171.891 190.029 171.796L191.342 170.36C191.588 170.097 191.779 169.788 191.905 169.451C192.031 169.114 192.089 168.755 192.075 168.395C192.062 168.035 191.977 167.682 191.826 167.355C191.675 167.028 191.461 166.734 191.196 166.491L190.759 166.15C191.131 165.612 191.298 164.958 191.231 164.307C191.164 163.655 190.868 163.049 190.394 162.597C190.025 162.255 189.569 162.021 189.075 161.922C188.581 161.823 188.07 161.863 187.598 162.038C188.838 160.772 189.616 159.896 189.713 159.799C190.128 159.246 190.32 158.556 190.249 157.868C190.179 157.179 189.852 156.543 189.333 156.085C188.814 155.628 188.143 155.383 187.451 155.399C186.76 155.415 186.1 155.692 185.604 156.173C182.036 160.134 177.946 163.588 173.446 166.442C171.886 164.023 169.655 162.112 167.026 160.943C166.367 160.755 165.661 160.82 165.047 161.126C164.433 161.432 163.956 161.957 163.709 162.597C163.462 163.238 163.463 163.947 163.713 164.587C163.962 165.226 164.442 165.749 165.057 166.053C166.637 166.819 167.969 168.017 168.899 169.508C168.608 170.296 168.396 171.112 168.266 171.942C127.974 226.498 74.576 207.128 72.1444 206.203C69.8727 205.45 67.3985 205.601 65.235 206.625C63.0715 207.648 61.3848 209.466 60.5247 211.701C59.6646 213.935 59.6971 216.416 60.6155 218.627C61.534 220.839 63.2678 222.611 65.4574 223.578C75.8679 227.159 86.8146 228.928 97.8223 228.809C101.788 228.814 105.75 228.587 109.689 228.128C129.798 225.695 159.537 214.209 183.318 183.549C183.89 183.217 184.442 182.851 184.972 182.454C185.485 182.123 185.98 181.766 186.455 181.383C188.299 179.793 190.008 178.051 191.561 176.176C192.004 175.615 192.214 174.904 192.146 174.192C192.078 173.48 191.738 172.822 191.196 172.355Z" fill="#F7DAB0"/>
<path d="M117.032 206.446L114.771 206.932C109.176 208.133 103.471 208.737 97.7492 208.733C89.2604 208.838 80.8157 207.497 72.7765 204.767C70.0675 203.727 67.0571 203.804 64.4046 204.98C61.7521 206.157 59.6736 208.338 58.6244 211.045C58.0424 212.369 57.7581 213.805 57.7917 215.252C57.8253 216.698 58.176 218.12 58.819 219.416C64.1685 228.906 78.8555 232.75 97.7249 232.75C101.788 232.752 105.847 232.516 109.883 232.045C112.423 231.76 114.947 231.346 117.445 230.804L119.026 230.39C117.612 225.855 116.69 221.18 116.278 216.447C116.327 213.101 116.579 209.761 117.032 206.446Z" fill="#96A0B5"/>
<path d="M58.2369 189.267C63.9999 185.593 65.9695 178.755 65.3373 171.893C70.395 175.3 74.3829 173.231 77.4954 167.391C87.0516 180.799 101.593 160.87 81.7507 153.643C65.8722 147.876 50.3099 163.595 54.395 179.388L58.2369 189.267Z" fill="#00396A"/>
</svg>
