<svg width="38" height="38" viewBox="0 0 38 38" fill="none" xmlns="http://www.w3.org/2000/svg">
<path d="M19 38C29.4934 38 38 29.4934 38 19C38 8.50659 29.4934 0 19 0C8.50659 0 0 8.50659 0 19C0 29.4934 8.50659 38 19 38Z" fill="black"/>
<path d="M18.7655 7C19.4828 7.96267 20.2006 8.92567 20.9186 9.889C23.0566 12.7423 25.1956 15.5947 27.3356 18.446C27.5196 18.692 27.5196 18.693 27.2356 18.788C24.4816 19.706 21.7279 20.6247 18.9746 21.544C18.8187 21.6028 18.6472 21.6056 18.4895 21.552C15.7302 20.6273 12.9695 19.7057 10.2075 18.787C9.9215 18.687 9.92153 18.687 10.1075 18.446L18.4405 7.334C18.5225 7.225 18.5986 7.111 18.6776 7H18.7655ZM18.7036 9.586L18.6565 9.57C18.6095 9.628 18.5616 9.686 18.5176 9.745L16.8625 11.952C15.4352 13.8547 14.0085 15.7577 12.5825 17.661C12.5395 17.719 12.4455 17.779 12.4825 17.85C12.5195 17.921 12.6186 17.868 12.6896 17.86C13.4362 17.78 14.1832 17.6987 14.9305 17.616C16.0995 17.486 17.2675 17.345 18.4375 17.228C18.6745 17.204 18.7115 17.11 18.7115 16.9C18.7049 14.5367 18.7049 12.1733 18.7115 9.81L18.7036 9.586Z" fill="white"/>
<path d="M27.4466 19.444C27.3996 19.5611 27.3275 19.6666 27.2355 19.753C24.4688 23.2143 21.7023 26.6746 18.9356 30.134C18.7266 30.395 18.7235 30.395 18.5205 30.141L10.1455 19.672C10.0807 19.6082 10.0305 19.5311 9.99857 19.446C10.0906 19.407 10.1556 19.461 10.2216 19.488C12.9783 20.636 15.7342 21.7857 18.4895 22.937C18.5645 22.9716 18.646 22.9895 18.7286 22.9895C18.8111 22.9895 18.8926 22.9716 18.9676 22.937C21.7222 21.7843 24.4786 20.635 27.2366 19.489C27.298 19.4471 27.3734 19.4309 27.4466 19.444ZM18.6465 27.889L18.6995 27.864C18.6995 26.84 18.6995 25.817 18.6995 24.793C18.6995 24.638 18.5846 24.613 18.4826 24.57L14.8175 23.048L14.7956 23.081L18.6465 27.889Z" fill="white"/>
</svg>
