<svg width="103" height="131" viewBox="0 0 103 131" fill="none" xmlns="http://www.w3.org/2000/svg">
<path d="M55.0321 98.3339C56.4075 99.7091 57.4985 101.342 58.2428 103.139C58.9872 104.935 59.3703 106.861 59.3703 108.806C59.3703 110.751 58.9872 112.677 58.2428 114.474C57.4985 116.271 56.4075 117.903 55.0321 119.279L52.2401 122.071C46.4659 127.642 38.7348 130.724 30.711 130.653C22.6871 130.581 15.0122 127.362 9.33814 121.688C3.66413 116.014 0.444766 108.34 0.37305 100.316C0.301335 92.2919 3.38301 84.5608 8.9547 78.7864L22.219 65.5244L26.4082 69.7136L55.0321 98.3339Z" fill="#08A3B0"/>
<path d="M24.9975 18.7119C25.6126 19.3271 26.0315 20.1109 26.2012 20.9642C26.3709 21.8175 26.2837 22.7019 25.9508 23.5057C25.6178 24.3094 25.054 24.9964 24.3306 25.4797C23.6073 25.963 22.7568 26.221 21.8869 26.221C21.0169 26.221 20.1664 25.963 19.4431 25.4797C18.7197 24.9964 18.1559 24.3094 17.8229 23.5057C17.49 22.7019 17.4028 21.8175 17.5725 20.9642C17.7422 20.1109 18.1611 19.3271 18.7762 18.7119C19.6013 17.8872 20.7202 17.4238 21.8869 17.4238C23.0535 17.4238 24.1724 17.8872 24.9975 18.7119Z" fill="#2DCCD4"/>
<path d="M28.7018 28.7054C30.3645 27.0425 31.2985 24.7874 31.2985 22.4359C31.2985 20.0844 30.3645 17.8292 28.7018 16.1664L16.1604 3.62389C21.9528 0.523071 28.589 -0.631919 35.0884 0.329683C41.5877 1.29129 47.6052 4.31842 52.2515 8.96366L65.5158 22.228L98.3289 55.0411C99.0384 55.7495 99.6742 56.5281 100.226 57.365C100.763 58.1761 101.217 59.0389 101.582 59.9402C101.762 60.3865 101.921 60.8387 102.058 61.2969C103.054 64.6943 102.807 68.3353 101.36 71.5668C101.088 72.1779 100.774 72.7697 100.421 73.338C99.8262 74.2965 99.1249 75.1845 98.3301 75.9847L74.049 100.266L65.517 108.798L55.0447 119.27C56.42 117.895 57.511 116.262 58.2554 114.465C58.9997 112.669 59.3828 110.743 59.3828 108.798C59.3828 106.853 58.9997 104.927 58.2554 103.13C57.511 101.333 56.42 99.7006 55.0447 98.3254L26.4172 69.7027L22.228 65.5135L8.96368 52.2491C4.31843 47.6029 1.29129 41.5854 0.329685 35.086C-0.631916 28.5867 0.523055 21.9504 3.62387 16.1581L16.1652 28.7006C17.8273 30.3632 20.0816 31.2977 22.4325 31.2985C24.7834 31.2994 27.0384 30.3667 28.7018 28.7054Z" fill="#2DCCD4"/>
</svg>
