<svg width="14" height="22" viewBox="0 0 14 22" xmlns="http://www.w3.org/2000/svg">
<path d="M0.692383 11.6565V11.6302C0.726727 11.6133 0.738351 11.5783 0.755622 11.5487C1.54202 10.2118 2.32823 8.87486 3.11424 7.53776L6.94888 1.01447C7.00956 0.91117 7.01002 0.911105 7.07109 1.01493L9.72508 5.52976C10.8082 7.37219 11.8912 9.21471 12.9741 11.0573C13.0857 11.2478 13.2018 11.436 13.3071 11.6302V11.6565C13.2856 11.6714 13.2647 11.6873 13.2425 11.7012C12.9235 11.9006 12.6045 12.0998 12.2854 12.2988C10.6508 13.3188 9.01619 14.339 7.38157 15.3593C7.27394 15.4264 7.16578 15.4927 7.05894 15.561C7.02538 15.5825 6.99517 15.5863 6.96267 15.5618C6.954 15.5552 6.94402 15.5504 6.93476 15.5446L4.26862 13.8808C3.09797 13.15 1.92728 12.4193 0.756541 11.6885C0.736184 11.6761 0.716352 11.6622 0.692383 11.6565Z"/>
<path d="M0.692383 12.9301V12.9169C0.730076 12.916 0.758051 12.938 0.787799 12.9563C1.07731 13.1371 1.36678 13.3178 1.6562 13.4986C3.41743 14.5977 5.17841 15.6972 6.93916 16.797C6.9911 16.8295 7.02827 16.8298 7.08054 16.797C7.57656 16.4845 8.0736 16.1736 8.57168 15.8645C10.1232 14.896 11.6748 13.9278 13.2265 12.9598C13.2524 12.9437 13.277 12.9249 13.3073 12.917V12.9433C13.2929 12.9626 13.278 12.9815 13.2642 13.0012C12.7091 13.7956 12.1541 14.5902 11.5992 15.385C10.9853 16.2636 10.3714 17.1424 9.75739 18.0211C9.03565 19.0543 8.31388 20.0873 7.5921 21.12C7.40162 21.3927 7.21076 21.665 7.01954 21.937H6.99327C6.9781 21.913 6.96372 21.8884 6.9473 21.8648C6.61555 21.3894 6.28366 20.914 5.95164 20.4387C4.98294 19.0524 4.01426 17.6661 3.04561 16.2799C2.28 15.1841 1.51444 14.0883 0.748923 12.9925C0.7329 12.9696 0.718388 12.9445 0.692383 12.9301Z"/>
</svg>
