<svg width="866" height="526" viewBox="0 0 866 526" fill="none" xmlns="http://www.w3.org/2000/svg">
<path fill-rule="evenodd" clip-rule="evenodd" d="M130.088 68.3763L112.294 54.6444C111.684 54.1735 111.068 54 110.5 54C109.932 54 109.316 54.1735 108.706 54.6443L90.9118 68.3763L72.7167 81.5405C71.4177 82.4804 70.5388 84.58 71.2518 86.7249L78.4442 108.36L84.9879 130.211C85.6082 132.282 87.1884 133.016 88.2465 133L110.5 132.648L132.753 133C133.812 133.016 135.392 132.282 136.012 130.211L142.556 108.36L149.748 86.7249C150.461 84.5801 149.582 82.4804 148.283 81.5405L130.088 68.3763ZM165.444 115.589L172.523 94.2961C176.467 82.4304 172.323 69.3106 162.351 62.0961L144.457 49.1495L126.957 35.6443C117.205 28.1186 103.795 28.1186 94.0427 35.6443L76.5429 49.1495L58.6485 62.0961C48.6769 69.3106 44.5327 82.4304 48.4774 94.2961L55.5562 115.589L61.9967 137.096C65.5857 149.081 76.4354 157.189 88.6252 156.997L110.5 156.651L132.375 156.997C144.565 157.189 155.414 149.081 159.003 137.096L165.444 115.589Z" fill="#FDF2FF"/>
<path fill-rule="evenodd" clip-rule="evenodd" d="M209.231 234.226L181.769 213.034C180.828 212.307 179.876 212.039 179 212.039C178.124 212.039 177.172 212.307 176.231 213.034L148.769 234.226L120.689 254.543C118.684 255.993 117.328 259.234 118.428 262.544L129.528 295.933L139.627 329.656C140.584 332.853 143.023 333.986 144.656 333.96L179 333.418L213.344 333.96C214.977 333.986 217.416 332.853 218.373 329.656L228.472 295.933L239.572 262.544C240.672 259.234 239.316 255.993 237.311 254.543L209.231 234.226ZM263.795 307.091L274.72 274.229C280.808 255.916 274.412 235.668 259.023 224.534L231.406 204.554L204.399 183.711C189.349 172.096 168.651 172.096 153.601 183.711L126.594 204.554L98.9773 224.534C83.5879 235.668 77.1921 255.916 83.28 274.229L94.2048 307.091L104.145 340.282C109.684 358.778 126.428 371.292 145.24 370.995L179 370.462L212.76 370.995C231.572 371.292 248.317 358.778 253.855 340.282L263.795 307.091Z" fill="#F2F5FF"/>
<path fill-rule="evenodd" clip-rule="evenodd" d="M644.231 101.226L616.769 80.0338C615.828 79.3071 614.876 79.0394 614 79.0394C613.124 79.0394 612.172 79.3071 611.231 80.0338L583.769 101.226L555.689 121.543C553.684 122.993 552.328 126.234 553.428 129.544L564.528 162.933L574.627 196.656C575.584 199.853 578.023 200.986 579.656 200.96L614 200.418L648.344 200.96C649.977 200.986 652.416 199.853 653.373 196.656L663.472 162.933L674.572 129.544C675.672 126.234 674.316 122.993 672.311 121.543L644.231 101.226ZM698.795 174.091L709.72 141.229C715.808 122.916 709.412 102.668 694.023 91.5341L666.406 71.5535L639.399 50.7109C624.349 39.0964 603.651 39.0963 588.601 50.7109L561.594 71.5535L533.977 91.5341C518.588 102.668 512.192 122.916 518.28 141.229L529.205 174.091L539.145 207.282C544.684 225.778 561.428 238.292 580.24 237.995L614 237.462L647.76 237.995C666.572 238.292 683.317 225.778 688.855 207.282L698.795 174.091Z" fill="#FFF2F4"/>
<path fill-rule="evenodd" clip-rule="evenodd" d="M405.231 59.2264L377.769 38.0338C376.828 37.3071 375.876 37.0394 375 37.0394C374.124 37.0394 373.172 37.3071 372.231 38.0338L344.769 59.2264L316.689 79.5429C314.684 80.9933 313.328 84.2337 314.428 87.5439L325.528 120.933L335.627 154.656C336.584 157.853 339.023 158.986 340.656 158.96L375 158.418L409.344 158.96C410.977 158.986 413.416 157.853 414.373 154.656L424.472 120.933L435.572 87.5439C436.672 84.2338 435.316 80.9933 433.311 79.5429L405.231 59.2264ZM459.795 132.091L470.72 99.2286C476.808 80.9162 470.412 60.6683 455.023 49.5341L427.406 29.5535L400.399 8.71094C385.349 -2.90364 364.651 -2.90365 349.601 8.71093L322.594 29.5535L294.977 49.5341C279.588 60.6683 273.192 80.9162 279.28 99.2286L290.205 132.091L300.145 165.282C305.684 183.778 322.428 196.292 341.24 195.995L375 195.462L408.76 195.995C427.572 196.292 444.317 183.778 449.855 165.282L459.795 132.091Z" fill="#F9F2FF"/>
<path fill-rule="evenodd" clip-rule="evenodd" d="M101.407 417.837L79.6901 401.078C78.9454 400.503 78.1929 400.291 77.5 400.291C76.8071 400.291 76.0546 400.503 75.31 401.078L53.5932 417.837L31.3865 433.904C29.8011 435.051 28.7284 437.613 29.5987 440.231L38.3767 466.636L46.3632 493.304C47.1203 495.832 49.0488 496.729 50.3402 496.708L77.5 496.28L104.66 496.708C105.951 496.729 107.88 495.832 108.637 493.304L116.623 466.636L125.401 440.231C126.272 437.613 125.199 435.051 123.613 433.904L101.407 417.837ZM144.557 475.459L153.197 449.472C158.011 434.99 152.953 418.978 140.783 410.172L118.944 394.371L97.5857 377.889C85.6838 368.704 69.3162 368.704 57.4143 377.889L36.0563 394.371L14.2167 410.172C2.04658 418.978 -3.01132 434.99 1.80308 449.472L10.4426 475.459L18.3031 501.708C22.6834 516.334 35.9251 526.231 50.8024 525.996L77.5 525.575L104.198 525.996C119.075 526.231 132.317 516.334 136.697 501.708L144.557 475.459Z" fill="#F2F5FF"/>
<path fill-rule="evenodd" clip-rule="evenodd" d="M524.929 447.146L509.097 434.928C508.554 434.509 508.005 434.354 507.5 434.354C506.995 434.354 506.446 434.509 505.903 434.928L490.071 447.146L473.882 458.859C472.726 459.695 471.944 461.563 472.578 463.472L478.978 482.721L484.8 502.164C485.352 504.007 486.758 504.66 487.7 504.645L507.5 504.333L527.3 504.645C528.242 504.66 529.648 504.007 530.2 502.164L536.022 482.721L542.422 463.472C543.056 461.563 542.274 459.695 541.118 458.859L524.929 447.146ZM556.387 489.154L562.686 470.208C566.195 459.651 562.508 447.977 553.636 441.558L537.714 430.038L522.143 418.022C513.466 411.326 501.534 411.326 492.857 418.022L477.286 430.038L461.364 441.558C452.492 447.977 448.805 459.651 452.315 470.208L458.613 489.154L464.344 508.29C467.537 518.954 477.191 526.168 488.037 525.997L507.5 525.69L526.963 525.997C537.809 526.168 547.463 518.954 550.656 508.29L556.387 489.154Z" fill="#F2F5FF"/>
<path fill-rule="evenodd" clip-rule="evenodd" d="M812.597 297.637L777.99 270.93C776.803 270.015 775.604 269.677 774.5 269.677C773.396 269.677 772.197 270.015 771.01 270.93L736.403 297.637L701.016 323.24C698.489 325.068 696.78 329.152 698.167 333.323L712.155 375.4L724.882 417.898C726.088 421.927 729.162 423.355 731.22 423.322L774.5 422.639L817.78 423.322C819.838 423.355 822.912 421.927 824.118 417.898L836.845 375.4L850.833 333.323C852.22 329.152 850.511 325.068 847.984 323.24L812.597 297.637ZM881.359 389.461L895.127 348.048C902.799 324.971 894.739 299.454 875.345 285.423L840.543 260.243L806.508 233.978C787.541 219.341 761.459 219.341 742.493 233.978L708.457 260.243L673.655 285.423C654.261 299.454 646.201 324.971 653.873 348.048L667.641 389.461L680.167 431.289C687.147 454.598 708.248 470.368 731.956 469.993L774.5 469.322L817.044 469.993C840.752 470.368 861.853 454.598 868.833 431.289L881.359 389.461Z" fill="#F2F5FF"/>
</svg>
