<svg width="104" height="115" viewBox="0 0 104 115" fill="none" xmlns="http://www.w3.org/2000/svg">
<path opacity="0.6" d="M63.7367 112.561C65.3126 114.135 66.5628 116.004 67.4157 118.061C68.2687 120.119 68.7078 122.324 68.7078 124.551C68.7078 126.778 68.2687 128.984 67.4157 131.041C66.5628 133.098 65.3126 134.968 63.7367 136.541L60.5402 139.738C57.2867 142.991 53.4241 145.572 49.1731 147.333C44.9221 149.094 40.3659 150 35.7646 150C31.1633 150 26.6071 149.094 22.3561 147.333C18.1051 145.572 14.2426 142.991 10.989 139.738C7.73539 136.484 5.1545 132.621 3.39367 128.37C1.63285 124.119 0.726562 119.563 0.726562 114.962C0.726562 110.361 1.63285 105.805 3.39367 101.554C5.1545 97.3025 7.73539 93.44 10.989 90.1864L26.1754 75L30.977 79.7876L63.7367 112.561Z" fill="url(#paint0_linear_162_8608)"/>
<path d="M29.358 21.4154C30.0637 22.1197 30.5447 23.0176 30.7399 23.9953C30.9352 24.973 30.836 25.9867 30.455 26.9081C30.0739 27.8294 29.4281 28.617 28.5992 29.1711C27.7703 29.7252 26.7957 30.021 25.7987 30.021C24.8016 30.021 23.827 29.7252 22.9981 29.1711C22.1692 28.617 21.5234 27.8294 21.1423 26.9081C20.7613 25.9867 20.6621 24.973 20.8574 23.9953C21.0526 23.0176 21.5336 22.1197 22.2393 21.4154C22.7062 20.947 23.2609 20.5753 23.8717 20.3217C24.4825 20.0681 25.1373 19.9375 25.7987 19.9375C26.46 19.9375 27.1149 20.0681 27.7257 20.3217C28.3364 20.5753 28.8911 20.947 29.358 21.4154Z" fill="url(#paint1_linear_162_8608)"/>
<path d="M33.588 32.8605C35.4913 30.9551 36.5605 28.3722 36.5605 25.679C36.5605 22.9859 35.4913 20.4029 33.588 18.4976L19.2391 4.14861C25.8676 0.598717 33.4627 -0.723502 40.9008 0.377519C48.339 1.47854 55.2253 4.94434 60.5411 10.2623L75.7276 25.4487L113.289 63.01C114.103 63.8179 114.832 64.7065 115.466 65.662C116.073 66.5987 116.591 67.5892 117.016 68.6211C117.226 69.1269 117.408 69.6442 117.56 70.1705C117.777 70.9162 117.941 71.6765 118.049 72.4457C118.181 73.2909 118.251 74.1446 118.258 75C118.253 75.6769 118.206 76.3528 118.118 77.024C117.906 78.7187 117.435 80.3708 116.723 81.9232C116.411 82.6219 116.052 83.2982 115.648 83.9472C114.966 85.0495 114.16 86.0703 113.247 86.99L85.4982 114.781L75.7276 124.551L63.7375 136.541C65.3134 134.968 66.5636 133.099 67.4166 131.041C68.2696 128.984 68.7087 126.778 68.7087 124.551C68.7087 122.324 68.2696 120.119 67.4166 118.061C66.5636 116.004 65.3134 114.135 63.7375 112.561L30.9779 79.7876L26.1763 75L10.9899 59.8136C5.67468 54.4931 2.21099 47.6047 1.11014 40.1652C0.00929183 32.7257 1.32962 25.1293 4.8762 18.4976L19.2391 32.8605C21.142 34.7629 23.7227 35.8317 26.4136 35.8317C29.1044 35.8317 31.6851 34.7629 33.588 32.8605Z" fill="url(#paint2_linear_162_8608)"/>
<defs>
<linearGradient id="paint0_linear_162_8608" x1="34.7172" y1="75" x2="34.7172" y2="150" gradientUnits="userSpaceOnUse">
<stop stop-color="white" stop-opacity="0.8"/>
<stop offset="1" stop-color="white" stop-opacity="0.4"/>
</linearGradient>
<linearGradient id="paint1_linear_162_8608" x1="25.7986" y1="19.9375" x2="25.7986" y2="30.021" gradientUnits="userSpaceOnUse">
<stop stop-color="white" stop-opacity="0.8"/>
<stop offset="1" stop-color="white" stop-opacity="0.4"/>
</linearGradient>
<linearGradient id="paint2_linear_162_8608" x1="59.4952" y1="0" x2="59.4952" y2="136.541" gradientUnits="userSpaceOnUse">
<stop stop-color="white" stop-opacity="0.8"/>
<stop offset="1" stop-color="white" stop-opacity="0.4"/>
</linearGradient>
</defs>
</svg>
