<svg width="161" height="33" viewBox="0 0 161 33" fill="none" xmlns="http://www.w3.org/2000/svg">
<g filter="url(#filter0_d_162_8615)">
<path d="M11.8862 2.72461C16.8695 2.72461 20.0018 5.79397 20.0018 10.3489C20.0018 14.9981 16.7713 18.0675 11.6544 18.0675H6.44312V24.8429H1V2.72461H11.8862ZM11.2614 13.5126C13.3718 13.5126 14.6569 12.2943 14.6569 10.4118C14.6569 8.63147 13.3718 7.37778 11.2614 7.37778H6.44312V13.5126H11.2614Z" fill="white"/>
<path d="M35.0776 8.166L34.8457 13.444H33.8907C30.1965 13.444 28.1843 15.354 28.1843 19.6457V24.8412H22.9062V8.26817H28.1843V11.4358C29.3633 9.47077 31.1869 8.0363 33.8907 8.0363C34.2903 8.02736 34.6894 8.07097 35.0776 8.166Z" fill="white"/>
<path d="M43.2914 3.38552C43.2914 5.06758 42.0063 6.32127 40.222 6.32127C39.8265 6.34185 39.4309 6.28075 39.0601 6.14179C38.6892 6.00282 38.3509 5.78898 38.0662 5.51356C37.7816 5.23815 37.5567 4.90706 37.4056 4.54095C37.2546 4.17483 37.1805 3.78152 37.188 3.38552C37.2164 2.59512 37.5503 1.84656 38.1195 1.29742C38.6887 0.748284 39.4488 0.441406 40.2397 0.441406C41.0306 0.441406 41.7907 0.748284 42.3599 1.29742C42.9291 1.84656 43.263 2.59512 43.2914 3.38552ZM37.585 24.8436V8.27057H42.863V24.8436H37.585Z" fill="white"/>
<path d="M74.7326 14.473V24.8444H69.486V15.5931C69.486 13.7145 68.2638 12.5237 66.7154 12.5237C64.77 12.5237 63.4809 13.9425 63.4809 16.7171V24.8444H58.2029V15.5931C58.2029 13.7145 56.9806 12.5237 55.4008 12.5237C53.4868 12.5237 52.2331 13.9425 52.2331 16.7171V24.8444H46.9551V8.27141H52.2174V9.78841C53.3375 8.53473 54.9685 7.77623 57.0985 7.77623C59.4094 7.77623 61.3862 8.7666 62.5102 10.5784C63.1968 9.67942 64.0872 8.95655 65.1081 8.46935C66.1289 7.98215 67.251 7.74459 68.3817 7.77623C71.9266 7.77623 74.7326 10.4487 74.7326 14.473Z" fill="white"/>
<path d="M95.4777 16.5527C95.4777 21.7954 91.3197 25.2932 86.4071 25.2932C81.3924 25.2932 77.2344 21.7954 77.2344 16.5527C77.2344 11.3101 81.3924 7.84375 86.4071 7.84375C91.3197 7.84375 95.4777 11.3376 95.4777 16.5527ZM90.3961 16.5527C90.3961 13.9786 88.4508 12.2611 86.4071 12.2611C85.8545 12.267 85.3087 12.3836 84.8018 12.6039C84.295 12.8242 83.8374 13.1438 83.4561 13.5438C83.0748 13.9438 82.7774 14.4161 82.5816 14.9329C82.3858 15.4497 82.2955 16.0005 82.316 16.5527C82.316 19.1584 84.2613 20.8404 86.4071 20.8404C88.4508 20.8404 90.3961 19.1584 90.3961 16.5527Z" fill="white"/>
<path d="M109.105 2.74805C114.084 2.74805 117.221 5.81741 117.221 10.3723C117.221 15.0216 113.986 18.0909 108.873 18.0909H103.662V24.8663H98.2188V2.74805H109.105ZM108.476 13.536C110.591 13.536 111.876 12.3177 111.876 10.4352C111.876 8.6549 110.591 7.40122 108.476 7.40122H103.662V13.536H108.476Z" fill="white"/>
<path d="M137.538 24.8462H132.26V23.5257C130.835 24.7567 128.997 25.4038 127.115 25.3374C122.725 25.3374 119.031 21.8004 119.031 16.5656C119.031 11.3308 122.725 7.7898 127.115 7.7898C128.997 7.72344 130.835 8.37056 132.26 9.60154V8.28498H137.538V24.8462ZM132.26 16.5538C132.26 14.0111 130.346 12.2622 128.204 12.2622C125.893 12.2622 124.211 14.0111 124.211 16.5538C124.211 19.0965 125.893 20.8415 128.204 20.8415C130.346 20.8415 132.26 19.124 132.26 16.5538Z" fill="white"/>
<path d="M149.579 30.4411H143.873L146.545 24.2709L139.684 8.23633H145.359L149.289 17.9043L153.478 8.23633H159.153L149.579 30.4411Z" fill="white"/>
</g>
<defs>
<filter id="filter0_d_162_8615" x="0" y="0.441406" width="160.153" height="32" filterUnits="userSpaceOnUse" color-interpolation-filters="sRGB">
<feFlood flood-opacity="0" result="BackgroundImageFix"/>
<feColorMatrix in="SourceAlpha" type="matrix" values="0 0 0 0 0 0 0 0 0 0 0 0 0 0 0 0 0 0 127 0" result="hardAlpha"/>
<feOffset dy="1"/>
<feGaussianBlur stdDeviation="0.5"/>
<feComposite in2="hardAlpha" operator="out"/>
<feColorMatrix type="matrix" values="0 0 0 0 0.176471 0 0 0 0 0.803922 0 0 0 0 0.831373 0 0 0 0.5 0"/>
<feBlend mode="normal" in2="BackgroundImageFix" result="effect1_dropShadow_162_8615"/>
<feBlend mode="normal" in="SourceGraphic" in2="effect1_dropShadow_162_8615" result="shape"/>
</filter>
</defs>
</svg>
