<svg xmlns="http://www.w3.org/2000/svg" width="681.708" height="110" viewBox="0 0 681.708 110">
  <g id="black" transform="translate(-247.918 -446.27)">
    <g id="Group_6632" data-name="Group 6632" transform="translate(247.918 446.27)">
      <path id="Path_12" data-name="Path 12" d="M2334.129,527.545a12.433,12.433,0,0,1,0,17.584l-2.344,2.344a25.7,25.7,0,0,1-36.34-36.339L2306.581,500l3.517,3.517Z" transform="translate(-2287.918 -445)" fill="#404041"/>
      <path id="Path_13" data-name="Path 13" d="M2308.574,461.631a3.693,3.693,0,1,1-5.223,0A3.694,3.694,0,0,1,2308.574,461.631Z" transform="translate(-2287.579 -445.933)" fill="#231f20"/>
      <path id="Path_14" data-name="Path 14" d="M2312.018,470.365a7.443,7.443,0,0,0,0-10.527l-10.529-10.53a25.7,25.7,0,0,1,30.3,4.483l11.136,11.136,27.548,27.548a12.41,12.41,0,0,1,1.593,1.951,12.263,12.263,0,0,1,1.138,2.162q.227.562.4,1.139a12.516,12.516,0,0,1-3.129,12.332h0l-20.385,20.385-7.164,7.163-8.792,8.792a12.433,12.433,0,0,0,0-17.584L2310.1,504.784l-3.517-3.517-11.136-11.136a25.7,25.7,0,0,1-4.482-30.3l10.529,10.53A7.443,7.443,0,0,0,2312.018,470.365Z" transform="translate(-2287.918 -446.27)"/>
    </g>
    <g id="Group_2" data-name="Group 2" transform="translate(352.088 462.13)">
      <path id="Path_15" data-name="Path 15" d="M2418.038,467.725c12.975,0,21.138,7.991,21.138,19.848,0,12.116-8.422,20.106-21.74,20.106H2403.86V525.3h-14.178V467.725Zm-1.633,28.1c5.5,0,8.85-3.179,8.85-8.078,0-4.639-3.352-7.906-8.85-7.906H2403.86v15.983Z" transform="translate(-2389.682 -461.623)"/>
      <path id="Path_16" data-name="Path 16" d="M2477.123,481.583l-.6,13.747h-2.491c-9.623,0-14.865,4.985-14.865,16.154v13.492h-13.749V481.841h13.749v8.249c3.093-5.155,7.819-8.85,14.865-8.85A11.809,11.809,0,0,1,2477.123,481.583Z" transform="translate(-2388.364 -461.304)"/>
      <path id="Path_17" data-name="Path 17" d="M2497.658,469.584c0,4.383-3.351,7.648-7.992,7.648a7.518,7.518,0,0,1-7.906-7.648,7.95,7.95,0,0,1,15.9,0Zm-14.865,55.853V482.3h13.747v43.135Z" transform="translate(-2387.505 -461.764)"/>
      <path id="Path_18" data-name="Path 18" d="M2578.957,498.011v26.981h-13.663V500.933c0-4.9-3.178-7.993-7.218-7.993-5.069,0-8.419,3.7-8.419,10.913v21.138h-13.749V500.933c0-4.9-3.179-7.993-7.3-7.993-4.984,0-8.249,3.7-8.249,10.913v21.138h-13.749V481.857h13.749v3.953c2.921-3.266,7.131-5.243,12.718-5.243,6.015,0,11.17,2.579,14.092,7.3a18.594,18.594,0,0,1,15.295-7.3C2571.653,480.567,2578.957,487.529,2578.957,498.011Z" transform="translate(-2386.918 -461.319)"/>
      <path id="Path_19" data-name="Path 19" d="M2631.179,503.421c0,13.663-10.827,22.77-23.631,22.77-13.061,0-23.887-9.107-23.887-22.77,0-13.578,10.826-22.685,23.887-22.685C2620.352,480.736,2631.179,489.843,2631.179,503.421Zm-13.232,0c0-6.7-5.07-11.172-10.4-11.172a10.776,10.776,0,0,0-10.655,11.172c0,6.788,5.07,11.169,10.655,11.169C2612.877,514.59,2617.947,510.209,2617.947,503.421Z" transform="translate(-2385.096 -461.316)"/>
      <path id="Path_20" data-name="Path 20" d="M2665.4,467.725c12.976,0,21.137,7.991,21.137,19.848,0,12.116-8.419,20.106-21.739,20.106h-13.575V525.3h-14.178V467.725Zm-1.633,28.1c5.5,0,8.851-3.179,8.851-8.078,0-4.639-3.353-7.906-8.851-7.906h-12.545v15.983Z" transform="translate(-2383.834 -461.623)"/>
      <path id="Path_21" data-name="Path 21" d="M2738.216,524.992h-13.748v-3.436a19.431,19.431,0,0,1-13.4,4.724c-11.428,0-21.052-9.192-21.052-22.855,0-13.578,9.625-22.858,21.052-22.858a19.427,19.427,0,0,1,13.4,4.726v-3.436h13.748Zm-13.748-21.567c0-6.617-4.985-11.172-10.569-11.172-6.015,0-10.4,4.555-10.4,11.172,0,6.7,4.382,11.169,10.4,11.169C2719.483,514.594,2724.468,510.126,2724.468,503.425Z" transform="translate(-2382.582 -461.319)"/>
      <path id="Path_22" data-name="Path 22" d="M2768.334,539.572h-14.866l6.962-16.069-17.873-41.759h14.78l10.224,25.176,10.913-25.176h14.779Z" transform="translate(-2381.34 -461.292)"/>
      <path id="Path_15946" data-name="Path 15946" d="M56.148,1.337h-14L18.723-34.2V1.337h-14v-57.9h14L42.144-20.692V-56.56h14Zm47.415-57.9v11.137H79.814V-32.73H98.158v10.646H79.814V1.337h-14v-57.9Zm48.807,0v11.137H136.647V1.337H122.561v-46.76H107V-56.56Z" transform="translate(425.169 66.291)"/>
    </g>
  </g>
</svg>
