<svg xmlns="http://www.w3.org/2000/svg" width="682.074" height="110" viewBox="0 0 682.074 110">
  <g id="white-t" transform="translate(-247.918 -446.27)">
    <g id="Group_3" data-name="Group 3" transform="translate(247.918 446.27)">
      <path id="Path_23" data-name="Path 23" d="M1314.129,527.545a12.433,12.433,0,0,1,0,17.584l-2.344,2.344a25.7,25.7,0,0,1-36.34-36.339L1286.581,500l3.517,3.517Z" transform="translate(-1267.918 -445)" fill="#08a3b0"/>
      <path id="Path_24" data-name="Path 24" d="M1288.574,461.631a3.693,3.693,0,1,1-5.223,0A3.694,3.694,0,0,1,1288.574,461.631Z" transform="translate(-1267.578 -445.933)" fill="#2dccd4"/>
      <path id="Path_25" data-name="Path 25" d="M1292.018,470.365a7.444,7.444,0,0,0,0-10.527l-10.529-10.53a25.7,25.7,0,0,1,30.3,4.483l11.136,11.136,27.548,27.548a12.426,12.426,0,0,1,1.593,1.951,12.271,12.271,0,0,1,1.138,2.162q.227.562.4,1.139a12.5,12.5,0,0,1-.586,8.622,12.332,12.332,0,0,1-.789,1.487,12.5,12.5,0,0,1-1.755,2.222h0l-20.385,20.385-7.163,7.163-8.792,8.792a12.433,12.433,0,0,0,0-17.584L1290.1,504.784l-3.517-3.517-11.136-11.136a25.7,25.7,0,0,1-4.483-30.3l10.529,10.53A7.444,7.444,0,0,0,1292.018,470.365Z" transform="translate(-1267.918 -446.27)" fill="#2dccd4"/>
    </g>
    <g id="Group_4" data-name="Group 4" transform="translate(352.088 462.13)">
      <path id="Path_26" data-name="Path 26" d="M1398.038,467.725c12.974,0,21.138,7.991,21.138,19.848,0,12.116-8.422,20.106-21.74,20.106H1383.86V525.3h-14.178V467.725Zm-1.633,28.1c5.5,0,8.85-3.179,8.85-8.078,0-4.639-3.351-7.906-8.85-7.906H1383.86v15.983Z" transform="translate(-1369.682 -461.623)" fill="#fff"/>
      <path id="Path_27" data-name="Path 27" d="M1457.123,481.583l-.6,13.747h-2.491c-9.623,0-14.865,4.985-14.865,16.154v13.492h-13.749V481.841h13.749v8.249c3.093-5.155,7.818-8.85,14.865-8.85A11.808,11.808,0,0,1,1457.123,481.583Z" transform="translate(-1368.364 -461.304)" fill="#fff"/>
      <path id="Path_28" data-name="Path 28" d="M1477.658,469.584c0,4.383-3.351,7.648-7.992,7.648a7.518,7.518,0,0,1-7.906-7.648,7.95,7.95,0,0,1,15.9,0Zm-14.865,55.853V482.3h13.747v43.135Z" transform="translate(-1367.505 -461.764)" fill="#fff"/>
      <path id="Path_29" data-name="Path 29" d="M1558.957,498.011v26.981h-13.664V500.933c0-4.9-3.178-7.993-7.218-7.993-5.069,0-8.419,3.7-8.419,10.913v21.138h-13.749V500.933c0-4.9-3.179-7.993-7.3-7.993-4.984,0-8.25,3.7-8.25,10.913v21.138h-13.749V481.857h13.749v3.953c2.922-3.266,7.132-5.243,12.718-5.243,6.015,0,11.17,2.579,14.091,7.3a18.594,18.594,0,0,1,15.3-7.3C1551.653,480.567,1558.957,487.529,1558.957,498.011Z" transform="translate(-1366.918 -461.319)" fill="#fff"/>
      <path id="Path_30" data-name="Path 30" d="M1611.179,503.421c0,13.663-10.827,22.77-23.631,22.77-13.061,0-23.887-9.107-23.887-22.77,0-13.578,10.826-22.685,23.887-22.685C1600.352,480.736,1611.179,489.843,1611.179,503.421Zm-13.233,0c0-6.7-5.07-11.172-10.4-11.172a10.776,10.776,0,0,0-10.655,11.172c0,6.788,5.07,11.169,10.655,11.169C1592.877,514.59,1597.947,510.209,1597.947,503.421Z" transform="translate(-1365.096 -461.315)" fill="#fff"/>
      <path id="Path_31" data-name="Path 31" d="M1645.4,467.725c12.976,0,21.137,7.991,21.137,19.848,0,12.116-8.419,20.106-21.739,20.106h-13.576V525.3h-14.178V467.725Zm-1.633,28.1c5.5,0,8.852-3.179,8.852-8.078,0-4.639-3.353-7.906-8.852-7.906h-12.545v15.983Z" transform="translate(-1363.834 -461.623)" fill="#fff"/>
      <path id="Path_32" data-name="Path 32" d="M1718.216,524.992h-13.749v-3.436a19.43,19.43,0,0,1-13.4,4.724c-11.428,0-21.052-9.192-21.052-22.855,0-13.578,9.624-22.858,21.052-22.858a19.427,19.427,0,0,1,13.4,4.726v-3.436h13.749Zm-13.749-21.567c0-6.617-4.985-11.172-10.569-11.172-6.015,0-10.4,4.555-10.4,11.172,0,6.7,4.382,11.169,10.4,11.169C1699.483,514.594,1704.468,510.126,1704.468,503.425Z" transform="translate(-1362.582 -461.319)" fill="#fff"/>
      <path id="Path_33" data-name="Path 33" d="M1748.334,539.572h-14.866l6.962-16.069-17.873-41.759h14.779l10.224,25.176,10.913-25.176h14.779Z" transform="translate(-1361.34 -461.292)" fill="#fff"/>
      <path id="Path_15945" data-name="Path 15945" d="M56.148,1.337h-14L18.723-34.2V1.337h-14v-57.9h14L42.144-20.692V-56.56h14Zm47.415-57.9v11.137H79.814V-32.73H98.158v10.646H79.814V1.337h-14v-57.9Zm48.807,0v11.137H136.647V1.337H122.561v-46.76H107V-56.56Z" transform="translate(425.535 66.291)" fill="#08a3b0"/>
    </g>
  </g>
</svg>
