<svg width="24" height="24" viewBox="0 0 24 24" fill="none" xmlns="http://www.w3.org/2000/svg">
<path d="M12 23L3 17V3H21V17.1L12 23Z" fill="#1890ff"/>
<path fill-rule="evenodd" clip-rule="evenodd" d="M11.5 8C11.5003 7.45007 11.6517 6.9108 11.9378 6.44112C12.2238 5.97144 12.6335 5.58942 13.1219 5.33681C13.6104 5.0842 14.1589 4.97071 14.7075 5.00876C15.2562 5.04681 15.7838 5.23492 16.2327 5.55254C16.6816 5.87016 17.0346 6.30506 17.2531 6.80973C17.4716 7.3144 17.5471 7.86941 17.4715 8.41412C17.3959 8.95882 17.172 9.47226 16.8243 9.89833C16.4766 10.3244 16.0185 10.6467 15.5 10.83V14C15.5 14.5909 15.3836 15.1761 15.1575 15.7221C14.9313 16.268 14.5998 16.7641 14.182 17.182C13.7641 17.5998 13.268 17.9313 12.7221 18.1575C12.1761 18.3836 11.5909 18.5 11 18.5C10.4091 18.5 9.82389 18.3836 9.27792 18.1575C8.73196 17.9313 8.23588 17.5998 7.81802 17.182C7.40016 16.7641 7.06869 16.268 6.84254 15.7221C6.6164 15.1761 6.5 14.5909 6.5 14V9L11.5 14H8.5C8.5 14.663 8.76339 15.2989 9.23223 15.7678C9.70107 16.2366 10.337 16.5 11 16.5C11.663 16.5 12.2989 16.2366 12.7678 15.7678C13.2366 15.2989 13.5 14.663 13.5 14V10.83C12.9149 10.623 12.4084 10.2397 12.0502 9.73285C11.6921 9.22603 11.4998 8.62062 11.5 8V8ZM14.5 7C14.2348 7 13.9804 7.10536 13.7929 7.29289C13.6054 7.48043 13.5 7.73478 13.5 8C13.5 8.26522 13.6054 8.51957 13.7929 8.70711C13.9804 8.89464 14.2348 9 14.5 9C14.7652 9 15.0196 8.89464 15.2071 8.70711C15.3946 8.51957 15.5 8.26522 15.5 8C15.5 7.73478 15.3946 7.48043 15.2071 7.29289C15.0196 7.10536 14.7652 7 14.5 7Z" fill="#d3e2fd"/>
</svg>
