<svg width="24" height="24" viewBox="0 0 24 24" fill="none" xmlns="http://www.w3.org/2000/svg">
<path d="M12 18C14.1217 18 16.1566 17.1571 17.6569 15.6569C19.1571 14.1566 20 12.1217 20 10C20 7.87827 19.1571 5.84344 17.6569 4.34315C16.1566 2.84285 14.1217 2 12 2V10L6.343 15.657C7.08508 16.401 7.96686 16.991 8.93768 17.393C9.9085 17.7951 10.9492 18.0014 12 18Z" fill="#2DCCD4"/>
<path d="M12 10L6.343 15.657C5.22413 14.5382 4.46215 13.1127 4.15345 11.5608C3.84474 10.0089 4.00317 8.40034 4.60869 6.93849C5.21422 5.47665 6.23964 4.2272 7.55529 3.34815C8.87094 2.4691 10.4177 1.99994 12 2V10ZM13 20H20V22H13V20ZM4.00001 20H11V22H4.00001V20Z" fill="#d3e2fd"/>
</svg>
