<svg width="24" height="24" viewBox="0 0 24 24" fill="none" xmlns="http://www.w3.org/2000/svg">
<path fill-rule="evenodd" clip-rule="evenodd" d="M23 6H1V18H23V6ZM21 8H19V16H21V8Z" fill="#1890ff"/>
<path d="M6.5 12C6.5 11.4696 6.28929 10.9609 5.91421 10.5858C5.53914 10.2107 5.03043 10 4.5 10C3.96957 10 3.46086 10.2107 3.08579 10.5858C2.71071 10.9609 2.5 11.4696 2.5 12C2.5 12.5304 2.71071 13.0391 3.08579 13.4142C3.46086 13.7893 3.96957 14 4.5 14C5.03043 14 5.53914 13.7893 5.91421 13.4142C6.28929 13.0391 6.5 12.5304 6.5 12Z" fill="#d3e2fd"/>
<path d="M10 10C11.1046 10 12 10.8954 12 12C12 13.1046 11.1046 14 10 14C8.89543 14 8 13.1046 8 12C8 10.8954 8.89543 10 10 10Z" fill="#d3e2fd"/>
<path d="M17.5 12C17.5 11.4696 17.2893 10.9609 16.9142 10.5858C16.5391 10.2107 16.0304 10 15.5 10C14.9696 10 14.4609 10.2107 14.0858 10.5858C13.7107 10.9609 13.5 11.4696 13.5 12C13.5 12.5304 13.7107 13.0391 14.0858 13.4142C14.4609 13.7893 14.9696 14 15.5 14C16.0304 14 16.5391 13.7893 16.9142 13.4142C17.2893 13.0391 17.5 12.5304 17.5 12Z" fill="#d3e2fd"/>
</svg>
