<svg width="24" height="24" viewBox="0 0 24 24" fill="none" xmlns="http://www.w3.org/2000/svg">
<path d="M13.5 5.5L17 2L22 7L18.5 10.5L13.5 5.5Z" fill="#d3e2fd"/>
<path fill-rule="evenodd" clip-rule="evenodd" d="M4.84801 13.848C5.55136 13.1447 6.50531 12.7495 7.50001 12.7495C8.4947 12.7495 9.44865 13.1447 10.152 13.848C10.8554 14.5514 11.2505 15.5053 11.2505 16.5C11.2505 17.4947 10.8554 18.4487 10.152 19.152C9.80374 19.5003 9.39029 19.7765 8.93526 19.965C8.48023 20.1535 7.99253 20.2505 7.50001 20.2505C7.00748 20.2505 6.51978 20.1535 6.06475 19.965C5.60972 19.7765 5.19627 19.5003 4.84801 19.152C4.14465 18.4487 3.74951 17.4947 3.74951 16.5C3.74951 15.5053 4.14465 14.5514 4.84801 13.848V13.848ZM6.26301 15.262C6.42447 15.0949 6.6176 14.9616 6.83113 14.8699C7.04465 14.7783 7.2743 14.73 7.50666 14.7281C7.73903 14.7261 7.96946 14.7704 8.18451 14.8585C8.39956 14.9465 8.59492 15.0765 8.7592 15.2408C8.92348 15.4052 9.05338 15.6006 9.14133 15.8157C9.22928 16.0308 9.27351 16.2612 9.27144 16.4936C9.26938 16.7259 9.22106 16.9556 9.1293 17.169C9.03754 17.3825 8.90418 17.5756 8.73701 17.737C8.40606 18.0508 7.96567 18.223 7.50963 18.217C7.0536 18.2109 6.61794 18.0271 6.29545 17.7046C5.97295 17.3821 5.7891 16.9464 5.78304 16.4904C5.77698 16.0343 5.94919 15.594 6.26301 15.263V15.262Z" fill="#d3e2fd"/>
<path fill-rule="evenodd" clip-rule="evenodd" d="M3.49999 12.5L12 4L20 12L11.5 20.5C10.4365 21.5483 9.00169 22.1336 7.5084 22.1283C6.01511 22.1229 4.58452 21.5273 3.5286 20.4714C2.47268 19.4155 1.8771 17.9849 1.87174 16.4916C1.86638 14.9983 2.45168 13.5635 3.49999 12.5V12.5ZM4.84799 13.848C5.55134 13.1446 6.5053 12.7495 7.49999 12.7495C8.49468 12.7495 9.44864 13.1446 10.152 13.848C10.8553 14.5514 11.2505 15.5053 11.2505 16.5C11.2505 17.4947 10.8553 18.4486 10.152 19.152C9.80373 19.5003 9.39027 19.7765 8.93524 19.965C8.48021 20.1535 7.99251 20.2505 7.49999 20.2505C7.00747 20.2505 6.51977 20.1535 6.06474 19.965C5.60971 19.7765 5.19626 19.5003 4.84799 19.152C4.14464 18.4486 3.7495 17.4947 3.7495 16.5C3.7495 15.5053 4.14464 14.5514 4.84799 13.848V13.848Z" fill="#1890ff"/>
</svg>
